<?xml version="1.0" encoding="UTF-8"?>
<svg id="Capa_2" data-name="Capa 2" xmlns="http://www.w3.org/2000/svg" viewBox="0 0 184.91 191.81">
  <defs>
    <style>
      .cls-1 {
        isolation: isolate;
      }

      .cls-2 {
        fill: #fff;
      }

      .cls-3 {
        fill: #151515;
      }
    </style>
  </defs>
  <g id="Capa_1-2" data-name="Capa 1">
    <g class="cls-1">
      <path class="cls-3" d="M44.95,26.84l12.26-7.01c-19.67,11.24-33.12,32.74-34.32,59.4-1.98,44.13,30.36,85.94,72.11,93.2l-12.26,7.01c-41.74-7.26-74.09-49.08-72.11-93.2,1.2-26.66,14.65-48.16,34.32-59.4Z"/>
      <path class="cls-2" d="M55.19,130.05c1.33-.26,2.81-.86,4.39-1.75l-12.26,7.01c-1.58.89-3.05,1.48-4.39,1.75-.96.2-1.88.21-2.78.06,4.09-2.34,8.17-4.67,12.26-7.01.9.16,1.82.14,2.78-.06Z"/>
      <path class="cls-2" d="M52.41,130.1h0c-4.09,2.34-8.17,4.67-12.26,7.01,0,0,0,0,0,0,0,0,0,0,0,0,4.07-2.33,8.15-4.66,12.22-6.98-4.07,2.33-8.15,4.66-12.22,6.98-.42-.07-.83-.19-1.24-.33-1.25-.47-2.45-1.3-3.57-2.46-1.06-1.12-2.14-2.62-3.18-4.45-2.09-3.66-2.9-6.79-2.42-9.3.48-2.52,2.32-4.71,5.48-6.5l12.26-7.01c-3.15,1.79-5,3.98-5.48,6.5-.49,2.51.33,5.64,2.42,9.3,1.05,1.83,2.12,3.33,3.18,4.45,1.12,1.16,2.32,1.99,3.57,2.46.41.15.82.26,1.24.33Z"/>
      <path class="cls-3" d="M36.18,115.74l12.26-7.01c-2.75,1.56-4.32,3.37-4.72,5.39-.39,2.03.35,4.68,2.18,7.89.95,1.68,1.92,3.03,2.86,4.02.9.94,1.84,1.6,2.81,1.96.3.11.61.2.93.25.69.12,1.42.1,2.18-.05,1.18-.23,2.5-.77,3.94-1.59l-12.26,7.01c-1.44.82-2.76,1.36-3.94,1.59-.76.15-1.49.17-2.18.05-.32-.06-.63-.14-.93-.25-.97-.36-1.91-1.02-2.81-1.96-.94-.99-1.91-2.34-2.86-4.02-1.83-3.21-2.56-5.86-2.18-7.89.39-2.02,1.97-3.83,4.72-5.39Z"/>
      <path class="cls-3" d="M51.35,118.91c-1.51.86-3.02,1.72-4.52,2.59-2.58,1.47-5.15,2.95-7.73,4.42,0,0,0,0,0,0,4.09-2.34,8.17-4.67,12.26-7.01Z"/>
      <path class="cls-3" d="M51.35,118.91c.45.79,1.08,1.27,1.79,1.39-4.09,2.34-8.17,4.67-12.26,7.01-.71-.12-1.34-.61-1.79-1.39,0,0,0,0,0,0,0,0,0,0,0,0,2.31-1.32,4.62-2.64,6.93-3.96,1.78-1.01,3.55-2.03,5.32-3.04,0,0,0,0,0,0Z"/>
      <path class="cls-3" d="M53.14,120.3c.12.02.23.03.35.03-4.09,2.34-8.17,4.67-12.26,7.01-.12,0-.24-.01-.35-.03,4.07-2.32,8.13-4.65,12.2-6.97-4.07,2.32-8.13,4.65-12.2,6.97,0,0,0,0,0,0,0,0,0,0,0,0,4.09-2.34,8.17-4.67,12.26-7.01,0,0,0,0,0,0Z"/>
      <path class="cls-3" d="M53.49,120.33s0,0,0,0c-4.09,2.34-8.17,4.67-12.26,7.01,0,0,0,0,0,0,.21-.12.49-.28.7-.4,2.08-1.19,4.15-2.37,6.23-3.56.24-.14.56-.32.8-.46s.56-.32.79-.45c.47-.27,1.09-.62,1.55-.89.23-.13.53-.3.75-.43.43-.25.95-.69,1.43-.82Z"/>
      <path class="cls-3" d="M56.25,119.34c-4.09,2.34-8.17,4.67-12.26,7.01-1.19.68-2.07,1-2.75.99,4.09-2.34,8.17-4.67,12.26-7.01.68,0,1.56-.32,2.75-.99Z"/>
      <path class="cls-3" d="M40.95,125.45l12.26-7.01c.27,0,.82-.07,2.08-.79l-12.26,7.01c-1.26.72-1.81.8-2.08.79Z"/>
      <polygon class="cls-3" points="41.22 121.48 53.48 114.48 56.81 112.58 44.56 119.59 41.22 121.48"/>
      <path class="cls-3" d="M51.22,116.34c-.43.74-.38,1.65.13,2.56-4.09,2.34-8.17,4.67-12.26,7.01-.52-.91-.56-1.82-.13-2.56.35-.6,1.07-1.19,2.26-1.86l12.26-7.01c-1.19.68-1.9,1.27-2.26,1.86Z"/>
      <path class="cls-3" d="M42.18,123.18l12.26-7.01c-1.26.72-1.6,1.15-1.7,1.3-.05.08-.13.22.08.6.16.28.29.36.39.37l-12.26,7.01c-.1-.02-.22-.09-.39-.37-.21-.37-.14-.51-.08-.6.09-.15.44-.59,1.7-1.3Z"/>
      <polygon class="cls-3" points="43.99 126.34 56.25 119.34 58.47 118.07 46.21 125.08 43.99 126.34"/>
      <polygon class="cls-3" points="43.03 124.66 55.29 117.65 57.51 116.39 45.25 123.4 43.03 124.66"/>
      <path class="cls-2" d="M58.61,115.7c-.26.19-.62.42-1.1.69l-12.26,7.01c.47-.27.84-.5,1.1-.69.16-.11.29-.24.38-.37,4.09-2.34,8.17-4.67,12.26-7.01-.09.13-.22.26-.38.37Z"/>
      <path class="cls-2" d="M58.99,115.33s-.1.05-.14.08c-.09.05-.2.11-.29.16-.15.09-.3.17-.45.26-.09.05-.22.12-.31.18-.4.23-.79.45-1.19.68-3.29,1.88-6.59,3.77-9.88,5.65.02-.03.04-.06.06-.1h0c4.09-2.34,8.17-4.67,12.26-7.01,0,0,0,0,0,0-.02.03-.04.06-.06.1Z"/>
      <path class="cls-2" d="M59.11,115.1s-.04.09-.06.13c-4.09,2.34-8.17,4.67-12.26,7.01.02-.04.04-.08.06-.13,4.09-2.34,8.17-4.67,12.26-7.01Z"/>
      <polygon class="cls-2" points="42.18 123.18 54.44 116.17 59.24 113.43 46.99 120.43 42.18 123.18"/>
      <polygon class="cls-3" points="40.85 113.08 53.11 106.07 56.81 112.58 44.56 119.59 40.85 113.08"/>
      <polygon class="cls-3" points="36.18 115.74 48.43 108.73 53.11 106.07 40.85 113.08 36.18 115.74"/>
      <polygon class="cls-3" points="41.36 110.56 53.62 103.55 59.24 113.43 46.99 120.43 41.36 110.56"/>
      <polygon class="cls-2" points="47.17 112.5 59.43 105.49 59.31 113.12 47.06 120.13 47.17 112.5"/>
      <polygon class="cls-3" points="48.93 112.73 61.19 105.72 61.07 113.37 48.81 120.38 48.93 112.73"/>
      <path class="cls-2" d="M59.11,115.1s-.12.07-.17.1c-.44.25-.87.5-1.31.75l-1.48.85c-3.1,1.77-6.2,3.54-9.3,5.31.06-.15.1-.33.12-.54.04-.38.06-.86.08-1.44l12.26-7.01c-.02.59-.04,1.06-.08,1.44-.02.21-.06.39-.12.54Z"/>
      <path class="cls-3" d="M58.55,118.03l-12.26,7.01c.48-.28.87-.52,1.16-.73.38-.28.67-.61.87-.98.21-.38.34-.83.39-1.35.04-.42.07-.94.09-1.6l12.26-7.01c-.02.66-.05,1.18-.09,1.6-.05.51-.19.97-.39,1.35-.2.37-.49.7-.87.98-.3.21-.68.45-1.16.73Z"/>
      <path class="cls-3" d="M58.55,118.03l-12.26,7.01s-.05.03-.08.05l12.26-7.01s.05-.03.08-.05Z"/>
      <polygon class="cls-2" points="47.32 135.31 59.58 128.3 64.07 125.75 51.81 132.76 47.32 135.31"/>
      <polygon class="cls-3" points="46.36 133.62 58.62 126.61 63.11 124.06 50.85 131.07 46.36 133.62"/>
      <path class="cls-3" d="M63.15,124.03l-12.26,7.01s-.03.02-.04.02l12.26-7.01s.03-.02.04-.02Z"/>
      <polygon class="cls-3" points="55.33 117.25 67.59 110.24 67.48 116.6 55.22 123.61 55.33 117.25"/>
      <polygon class="cls-3" points="57.09 117.48 69.35 110.48 69.24 116.85 56.98 123.86 57.09 117.48"/>
      <path class="cls-3" d="M63.15,124.03l-12.26,7.01c.8-.46,1.48-.93,2.02-1.41.54-.47.98-.99,1.3-1.55.33-.56.57-1.2.73-1.9.16-.74.25-1.6.27-2.57l12.26-7.01c-.02.97-.11,1.83-.27,2.57-.16.7-.4,1.34-.73,1.9-.33.56-.77,1.08-1.3,1.55-.54.48-1.22.95-2.02,1.41Z"/>
      <path class="cls-3" d="M64.1,125.73l-12.26,7.01c.89-.51,1.66-1.05,2.27-1.6.66-.58,1.2-1.22,1.62-1.93.42-.7.73-1.51.93-2.4.19-.85.29-1.84.32-2.95l12.26-7.01c-.03,1.11-.13,2.1-.32,2.95-.2.88-.51,1.7-.93,2.4-.41.71-.96,1.36-1.62,1.93-.61.55-1.38,1.09-2.27,1.6Z"/>
      <path class="cls-2" d="M64.07,125.75s.02-.01.03-.02l-12.26,7.01s-.02.01-.03.02c3.68-2.1,8.58-4.91,12.26-7.01Z"/>
      <polygon class="cls-3" points="35.22 114.06 47.47 107.05 53.62 103.55 41.36 110.56 35.22 114.06"/>
      <path class="cls-2" d="M59.52,103.84c-.06.51-.09,1.06-.09,1.65l-12.26,7.01c0-.59.03-1.14.09-1.65,4.09-2.34,8.17-4.67,12.26-7.01Z"/>
      <path class="cls-2" d="M59.52,103.84c-4.09,2.34-8.17,4.67-12.26,7.01.04-.35.1-.68.16-.98.05-.24.12-.47.19-.69,4.09-2.34,8.17-4.67,12.26-7.01-.07.22-.13.45-.19.69-.07.31-.12.63-.16.98Z"/>
      <polygon class="cls-2" points="57.28 116.55 69.54 109.54 75.16 119.43 62.91 126.44 57.28 116.55"/>
      <path class="cls-2" d="M59.87,102.17c-.05.06-.15.08-.21.12-.13.08-.31.18-.44.25-.4.23-.79.45-1.19.68-.61.35-1.23.7-1.84,1.05-2.86,1.63-5.72,3.27-8.58,4.9.16-.52.38-1.01.64-1.45.38-.64.87-1.22,1.49-1.72.32-.27.7-.54,1.11-.82,4.09-2.34,8.17-4.67,12.26-7.01-.42.28-.79.55-1.11.82-.61.5-1.11,1.08-1.49,1.72-.27.44-.48.93-.64,1.45Z"/>
      <polygon class="cls-3" points="58.01 111.94 70.26 104.93 72.44 103.69 60.18 110.7 58.01 111.94"/>
      <path class="cls-3" d="M57.99,111.95l12.26-7.01c-.49.28-.9.57-1.22.86-.35.32-.64.68-.86,1.1-.22.43-.38.92-.46,1.48-.07.5-.11,1.12-.12,1.87l-12.26,7.01c0-.75.05-1.36.12-1.87.08-.56.24-1.05.46-1.48.22-.42.51-.78.86-1.1.32-.29.73-.58,1.22-.86Z"/>
      <path class="cls-3" d="M57.46,114.97l12.26-7.01c-.13.24-.22.54-.27.9-.06.41-.09.95-.1,1.61l-12.26,7.01c0-.66.04-1.2.1-1.61.06-.36.14-.67.27-.9Z"/>
      <polygon class="cls-3" points="52.86 106.23 65.12 99.23 70.07 96.42 57.82 103.42 52.86 106.23"/>
      <path class="cls-3" d="M52.83,106.25l12.26-7.01c-.78.45-1.43.88-1.92,1.3-.47.39-.86.84-1.14,1.32-.28.48-.5,1.03-.63,1.63-.14.62-.21,1.38-.21,2.24l-12.26,7.01c0-.86.07-1.61.21-2.24.13-.6.35-1.15.63-1.63.28-.48.67-.93,1.14-1.32.49-.41,1.14-.85,1.92-1.3Z"/>
      <path class="cls-3" d="M52.83,106.25l12.26-7.01s.02-.01.03-.02l-12.26,7.01s-.02.01-.03.02Z"/>
      <path class="cls-2" d="M63.12,98.19c-.18.11-.43.25-.62.36-.68.39-1.36.78-2.04,1.16-.89.51-1.77,1.01-2.66,1.52-2.31,1.32-4.63,2.65-6.94,3.97.32-.21.67-.43,1.04-.64l12.26-7.01c-.38.22-.72.43-1.04.64Z"/>
      <polygon class="cls-3" points="59.71 117.4 71.97 110.39 75.68 116.91 63.43 123.92 59.71 117.4"/>
      <polygon class="cls-2" points="58.97 113.62 71.22 106.61 73.4 105.37 61.14 112.38 58.97 113.62"/>
      <path class="cls-3" d="M58.94,113.63l12.26-7.01c-.4.23-.72.45-.96.67-.22.19-.39.41-.52.67l-12.26,7.01c.13-.25.31-.48.52-.67.24-.22.57-.45.96-.68Z"/>
      <path class="cls-2" d="M71.2,106.63s.02,0,.02-.01l-12.26,7.01s-.02,0-.02.01c3.68-2.1,8.58-4.9,12.26-7.01Z"/>
      <path class="cls-3" d="M57.99,111.95l12.26-7.01s.01,0,.02,0l-12.26,7.01s-.01,0-.02,0Z"/>
      <polygon class="cls-3" points="59.71 117.4 71.97 110.4 75.21 108.55 62.95 115.56 59.71 117.4"/>
      <polygon class="cls-3" points="57.28 116.55 69.54 109.54 74.25 106.86 61.99 113.87 57.28 116.55"/>
      <path class="cls-3" d="M74.32,106.82l-12.26,7.01s-.05.03-.07.04l12.26-7.01s.05-.03.07-.04Z"/>
      <path class="cls-2" d="M75.34,106.16c-.24.18-.57.4-1.02.66l-12.26,7.01c.45-.26.78-.48,1.02-.66,4.09-2.34,8.17-4.67,12.26-7.01Z"/>
      <polygon class="cls-2" points="62.91 126.44 75.16 119.43 81.22 115.98 68.96 122.99 62.91 126.44"/>
      <polygon class="cls-3" points="63.43 123.92 75.68 116.91 80.26 114.3 68 121.3 63.43 123.92"/>
      <polygon class="cls-3" points="51.9 104.55 64.16 97.54 69.11 94.73 56.86 101.73 51.9 104.55"/>
      <path class="cls-3" d="M83.61,111.74c-.78.87-1.89,1.73-3.3,2.53l-12.26,7.01c1.41-.8,2.52-1.66,3.3-2.53.75-.84,1.23-1.77,1.42-2.79,0,0,0,0,0,0,4.09-2.34,8.17-4.67,12.26-7.01,0,0,0,0,0,0-.19,1.02-.67,1.95-1.42,2.79Z"/>
      <path class="cls-3" d="M80.31,114.27l-12.26,7.01s-.03.02-.05.03l12.26-7.01s.03-.02.05-.03Z"/>
      <path class="cls-3" d="M84.8,105.52c.35,1.25.43,2.4.23,3.42-4.09,2.34-8.17,4.67-12.26,7.01.2-1.03.12-2.18-.23-3.42,4.09-2.34,8.17-4.67,12.26-7.01Z"/>
      <path class="cls-3" d="M81.27,115.95l-12.26,7.01c1.55-.89,2.79-1.84,3.67-2.83.94-1.06,1.55-2.26,1.8-3.59.26-1.33.16-2.79-.28-4.34l12.26-7.01c.44,1.55.53,3.01.28,4.34-.25,1.33-.86,2.54-1.8,3.59-.89.99-2.12,1.94-3.67,2.83Z"/>
      <path class="cls-2" d="M81.22,115.98s.03-.02.05-.03l-12.26,7.01s-.03.02-.05.03c3.68-2.1,8.58-4.91,12.26-7.01Z"/>
      <path class="cls-2" d="M75.34,106.16c-.08.05-.19.11-.27.16-.6.34-1.19.68-1.79,1.02-.09.05-.22.12-.31.18-.79.45-1.58.9-2.37,1.36-2.5,1.43-5.01,2.86-7.51,4.29.4-.31.55-.51.6-.6l12.26-7.01c-.05.09-.2.29-.6.6Z"/>
      <path class="cls-2" d="M61.14,112.38l12.26-7.01c1.27-.71,1.81-.8,1.99-.79l-12.26,7.01c-.18,0-.73.08-1.99.79Z"/>
      <path class="cls-2" d="M75.43,104.59c-4.09,2.34-8.17,4.67-12.26,7.01-.01,0-.03,0-.04,0l12.26-7.01s.03,0,.04,0Z"/>
      <path class="cls-2" d="M75.86,104.96c-4.09,2.34-8.17,4.67-12.26,7.01-.15-.27-.27-.34-.43-.37.21-.12.48-.27.68-.39,3.76-2.15,7.51-4.29,11.27-6.44.06-.03.11-.06.17-.09.03-.02.07-.04.1-.06.01,0,.02-.02.04-.02.16.03.28.11.43.37Z"/>
      <path class="cls-2" d="M63.6,111.97l12.26-7.01c.22.38.14.51.08.6l-12.26,7.01c.05-.08.14-.22-.08-.6Z"/>
      <path class="cls-3" d="M60.18,110.7l12.26-7.01c1.19-.68,2.07-1,2.75-.99.13,0,.25.01.37.03.71.12,1.33.61,1.78,1.39.52.91.56,1.82.12,2.57-.34.59-1.06,1.17-2.26,1.86l-12.26,7.01c1.19-.68,1.91-1.27,2.26-1.86.44-.75.39-1.66-.12-2.57-.45-.78-1.07-1.27-1.78-1.39-.12-.02-.24-.03-.37-.03-.68,0-1.56.32-2.75.99Z"/>
      <path class="cls-3" d="M76.22,94.88c-4.09,2.33-8.17,4.67-12.26,7.01-1.76-.31-3.82.21-6.14,1.54l12.26-7.01c2.33-1.33,4.39-1.84,6.14-1.54Z"/>
      <path class="cls-3" d="M84.79,105.52s0,0,0,0c-4.09,2.34-8.17,4.67-12.26,7.01,0,0,0,0,0,0,0,0,0,0,0,0,4.09-2.34,8.17-4.67,12.26-7.01,0,0,0,0,0,0Z"/>
      <path class="cls-3" d="M82.8,101.01c.95,1.67,1.62,3.19,2,4.5-4.09,2.34-8.17,4.67-12.26,7.01-.37-1.32-1.04-2.83-2-4.5-1.83-3.21-3.74-5.2-5.68-5.9-.29-.1-.59-.18-.9-.24l12.26-7.01c.31.05.61.13.9.24,1.94.7,3.85,2.68,5.68,5.9Z"/>
      <path class="cls-3" d="M56.86,101.73l12.26-7.01c2.65-1.5,5.05-2.08,7.19-1.7.41.07.81.18,1.2.32,2.41.86,4.68,3.16,6.77,6.84,1.05,1.83,1.79,3.51,2.2,5.01l-12.26,7.01c-.42-1.5-1.16-3.17-2.2-5.01-2.09-3.67-4.37-5.97-6.77-6.84-.39-.14-.79-.25-1.2-.32-2.13-.37-4.54.2-7.19,1.7Z"/>
      <path class="cls-3" d="M139.95,164.98l-12.26,7.01c-12.89,7.37-28.44,10.33-44.96,7.45l12.26-7.01c16.52,2.87,32.07-.09,44.96-7.45Z"/>
      <polygon class="cls-2" points="103.99 107.08 116.25 100.07 115.77 110.67 103.51 117.68 103.99 107.08"/>
      <polygon class="cls-3" points="105.66 109.24 117.92 102.23 117.61 109.12 105.35 116.12 105.66 109.24"/>
      <polygon class="cls-2" points="77.21 56.93 89.47 49.92 89.13 57.47 76.88 64.48 77.21 56.93"/>
      <polygon class="cls-3" points="78.88 59.1 91.14 52.09 90.89 57.77 78.63 64.78 78.88 59.1"/>
      <path class="cls-2" d="M99.56,70.7c3.25.56,5.8.33,7.6-.7l-12.26,7.01c-1.8,1.03-4.36,1.27-7.6.7-1.89-.33-3.51-.82-4.84-1.46-1.38-.67-2.53-1.57-3.4-2.68-.88-1.11-1.5-2.45-1.84-3.97-.32-1.45-.44-3.17-.35-5.13l12.26-7.01c-.09,1.95.03,3.68.35,5.13.34,1.52.95,2.85,1.84,3.97.87,1.11,2.02,2.01,3.4,2.68,1.33.63,2.95,1.13,4.84,1.46Z"/>
      <path class="cls-3" d="M106.21,68.31l-12.26,7.01c-1.49.85-3.69,1.02-6.56.52-1.72-.3-3.19-.73-4.36-1.3-1.1-.54-2-1.23-2.68-2.09-.67-.85-1.14-1.88-1.41-3.08-.28-1.27-.38-2.81-.3-4.59l12.26-7.01c-.08,1.78.03,3.32.3,4.59.27,1.2.74,2.23,1.41,3.08.68.86,1.58,1.55,2.68,2.09,1.17.57,2.64,1,4.36,1.3,2.87.5,5.07.33,6.56-.52Z"/>
      <path class="cls-3" d="M94.98,62.14c-3.1,1.77-6.2,3.55-9.3,5.32,0,0,0,0,0,0,3.1-1.77,6.2-3.55,9.31-5.32Z"/>
      <path class="cls-3" d="M99.95,62.08c-4.09,2.34-8.17,4.67-12.26,7.01-.95-.17-1.66-.74-2.01-1.62h0s0,0,0,0c0,0,0,0,0,0,.32-.18.74-.43,1.06-.61.17-.09.39-.22.55-.32s.39-.23.56-.32c.78-.45,1.56-.89,2.34-1.34,2.58-1.47,5.15-2.95,7.73-4.42,0,0,0,0,0,0,.35.88,1.07,1.46,2.01,1.62Z"/>
      <path class="cls-3" d="M97,63.76c-3.1,1.77-6.2,3.55-9.3,5.32h0s0,0,0,0c3.1-1.77,6.2-3.55,9.31-5.32Z"/>
      <polygon class="cls-3" points="78.88 59.1 91.14 52.09 97.81 53.25 85.55 60.26 78.88 59.1"/>
      <polygon class="cls-3" points="85.55 60.26 97.81 53.25 97.63 57.26 85.37 64.27 85.55 60.26"/>
      <polygon class="cls-3" points="87.39 58.7 99.65 51.7 99.39 57.57 87.13 64.58 87.39 58.7"/>
      <path class="cls-3" d="M97.93,60.46c-4.09,2.34-8.17,4.67-12.26,7.01-.27-.7-.37-1.71-.3-3.19l12.26-7.01c-.07,1.49.03,2.5.3,3.19Z"/>
      <path class="cls-3" d="M99.95,62.08c.55.1,1.04.02,1.43-.2l-12.26,7.01c-.39.23-.88.3-1.43.2,4.09-2.34,8.17-4.67,12.26-7.01,0,0,0,0,0,0Z"/>
      <polygon class="cls-2" points="88.76 62.14 101.02 55.13 100.89 57.83 88.64 64.84 88.76 62.14"/>
      <path class="cls-3" d="M100.42,60.2l-12.26,7.01c-.07.04-.18.06-.39.03-.39-.07-.44-.21-.49-.32-.07-.18-.23-.76-.16-2.33l12.26-7.01c-.07,1.57.09,2.15.16,2.33.04.11.1.25.49.32.2.04.32.01.39-.03Z"/>
      <path class="cls-2" d="M100.53,60.07s-.05.09-.11.12l-12.26,7.01c.06-.03.09-.08.11-.12,3.68-2.1,8.58-4.9,12.26-7.01Z"/>
      <polygon class="cls-2" points="104.55 94.55 116.81 87.54 116.33 98.14 104.08 105.15 104.55 94.55"/>
      <path class="cls-2" d="M100.79,59.04c-4.09,2.34-8.17,4.67-12.26,7.01.04-.31.08-.71.1-1.21l12.26-7.01c-.02.5-.06.9-.1,1.21Z"/>
      <polygon class="cls-3" points="90.51 62.44 102.77 55.44 102.65 58.14 90.39 65.14 90.51 62.44"/>
      <path class="cls-2" d="M100.79,59.04c-.09.66-.2.93-.26,1.04l-12.26,7.01c.06-.1.17-.38.26-1.04,4.09-2.34,8.17-4.67,12.26-7.01Z"/>
      <polygon class="cls-3" points="106.22 96.71 118.48 89.7 118.17 96.58 105.91 103.59 106.22 96.71"/>
      <polygon class="cls-3" points="77.21 56.93 89.47 49.92 99.65 51.7 87.39 58.7 77.21 56.93"/>
      <polygon class="cls-2" points="82.02 53.58 94.28 46.57 99.02 50.93 86.76 57.94 82.02 53.58"/>
      <polygon class="cls-3" points="83.08 52.21 95.34 45.2 100.07 49.56 87.81 56.57 83.08 52.21"/>
      <path class="cls-2" d="M93.6,45.91c.22.22.44.44.68.66l-12.26,7.01c-.24-.22-.46-.44-.68-.66,4.09-2.34,8.17-4.67,12.26-7.01Z"/>
      <path class="cls-3" d="M94.56,74.9c.15-.1.37-.21.52-.3,1.33-.76,2.67-1.52,4-2.29,1.59-.91,3.19-1.82,4.78-2.73-3.1,1.77-6.2,3.55-9.31,5.32,0,0,0,0,0,0Z"/>
      <polygon class="cls-2" points="103.51 117.68 115.77 110.67 133.08 113.68 120.82 120.69 103.51 117.68"/>
      <path class="cls-2" d="M93.6,45.91c-4.09,2.34-8.17,4.67-12.26,7.01-.53-.54-.99-1.07-1.38-1.59-.57-.76-1.03-1.57-1.36-2.41-.33-.82-.56-1.73-.68-2.69-.04-.37-.08-.76-.1-1.16,4.09-2.34,8.17-4.67,12.26-7.01.02.41.05.8.1,1.16.12.95.35,1.86.68,2.69.33.84.79,1.65,1.36,2.41.39.52.86,1.06,1.38,1.59Z"/>
      <polygon class="cls-3" points="105.35 116.12 117.61 109.12 133.16 111.82 120.9 118.83 105.35 116.12"/>
      <path class="cls-3" d="M101.38,61.88l-12.26,7.01c.28-.16.51-.39.68-.7.33-.59.52-1.56.58-3.04l12.26-7.01c-.07,1.48-.25,2.45-.58,3.04-.18.31-.41.54-.68.7Z"/>
      <polygon class="cls-2" points="78.08 37.58 90.34 30.58 90.09 36.15 77.83 43.16 78.08 37.58"/>
      <polygon class="cls-3" points="79.84 37.89 92.09 30.88 91.84 36.45 79.59 43.46 79.84 37.89"/>
      <path class="cls-2" d="M90.09,38.06c-4.09,2.34-8.17,4.67-12.26,7.01-.03-.6-.03-1.24,0-1.91l12.26-7.01c-.03.67-.03,1.31,0,1.91Z"/>
      <path class="cls-2" d="M101.01,54.16c.02.28.02.61,0,.97l-12.26,7.01c.02-.36.02-.69,0-.97,4.09-2.34,8.17-4.67,12.26-7.01Z"/>
      <path class="cls-2" d="M100.25,52.16c-4.09,2.34-8.17,4.67-12.26,7.01-.02-.02-.04-.05-.06-.07-.28-.33-.68-.72-1.17-1.16l12.26-7.01c.49.45.89.84,1.17,1.16.02.02.04.05.06.07Z"/>
      <path class="cls-2" d="M101.01,54.16c-4.09,2.34-8.17,4.67-12.26,7.01,0-.12-.02-.24-.03-.34-.04-.28-.11-.55-.21-.81,4.09-2.34,8.17-4.67,12.26-7.01.1.26.17.53.21.81.01.11.03.22.03.34Z"/>
      <path class="cls-2" d="M100.77,53.01c-4.09,2.34-8.17,4.67-12.26,7.01-.01-.03-.02-.06-.04-.09-.11-.25-.27-.5-.48-.76,4.09-2.34,8.17-4.67,12.26-7.01.21.26.37.51.48.76.01.03.02.06.04.09Z"/>
      <path class="cls-3" d="M79.59,43.46l12.26-7.01c-.05,1.01-.02,1.93.08,2.74.09.77.28,1.5.53,2.16.26.65.62,1.29,1.08,1.9.47.63,1.08,1.29,1.8,1.95l-12.26,7.01c-.72-.66-1.33-1.33-1.8-1.95-.46-.61-.82-1.25-1.08-1.9-.26-.66-.44-1.38-.53-2.16-.1-.81-.13-1.73-.08-2.74Z"/>
      <path class="cls-3" d="M87.81,56.57l12.26-7.01c.56.5,1,.95,1.35,1.35.38.44.68.91.89,1.38.21.47.35.97.41,1.48.07.48.08,1.04.05,1.67l-12.26,7.01c.03-.63.01-1.18-.05-1.67-.06-.51-.2-1-.41-1.48-.21-.47-.51-.94-.89-1.38-.35-.4-.79-.84-1.35-1.35Z"/>
      <polygon class="cls-3" points="105.66 109.24 117.92 102.23 133.47 104.94 121.21 111.94 105.66 109.24"/>
      <path class="cls-2" d="M138.68,113.25l-12.26,7.01c-.21.12-.42.22-.65.3-1.21.45-2.83.5-4.95.13l12.26-7.01c2.12.37,3.74.32,4.95-.13.23-.08.45-.19.65-.3Z"/>
      <path class="cls-3" d="M137.71,111.57l-12.26,7.01c-.14.08-.28.15-.43.2-.94.35-2.32.36-4.12.05l12.26-7.01c1.8.31,3.18.3,4.12-.05.15-.06.3-.12.43-.2Z"/>
      <polygon class="cls-3" points="97.26 61.83 109.52 54.82 109.24 60.97 96.98 67.97 97.26 61.83"/>
      <polygon class="cls-3" points="99.01 62.13 111.27 55.12 111 61.27 98.74 68.28 99.01 62.13"/>
      <path class="cls-3" d="M106.81,67.89c-.19.15-.39.29-.61.42l-12.26,7.01c.22-.12.42-.26.61-.42,4.09-2.34,8.17-4.67,12.26-7.01-4.09,2.34-8.17,4.67-12.26,7.01,1.45-1.2,2.28-3.53,2.43-6.93l12.26-7.01c-.15,3.4-.97,5.72-2.43,6.93Z"/>
      <polygon class="cls-3" points="103.99 107.08 116.25 100.07 133.55 103.08 121.29 110.09 103.99 107.08"/>
      <path class="cls-3" d="M107.16,70l-12.26,7.01c.29-.17.56-.35.81-.56,1.83-1.5,2.84-4.25,3.02-8.16l12.26-7.01c-.18,3.92-1.19,6.66-3.02,8.16-.25.21-.52.39-.81.56Z"/>
      <path class="cls-3" d="M138.68,113.25l-12.26,7.01c.6-.34,1.11-.82,1.52-1.44l12.26-7.01c-.41.62-.92,1.1-1.52,1.44Z"/>
      <path class="cls-3" d="M137.71,111.57l-12.26,7.01c.65-.37,1.14-.99,1.49-1.88l12.26-7.01c-.35.89-.84,1.51-1.49,1.88Z"/>
      <polygon class="cls-2" points="123.54 108.54 135.8 101.53 135.76 102.35 123.5 109.35 123.54 108.54"/>
      <path class="cls-3" d="M135.41,103.01l-12.26,7.01c-.29.17-.84.25-1.86.07l12.26-7.01c1.02.18,1.56.1,1.86-.07Z"/>
      <path class="cls-3" d="M100.04,41.08c-4.09,2.34-8.17,4.67-12.26,7.01-.13-.13-.25-.25-.35-.37-.36-.39-.65-.81-.83-1.25l12.26-7.01c.18.44.46.86.83,1.25.11.12.22.24.35.37Z"/>
      <path class="cls-3" d="M136.4,104.68l-12.26,7.01c-.61.35-1.53.5-2.94.26l12.26-7.01c1.4.24,2.33.09,2.94-.26Z"/>
      <path class="cls-2" d="M140.2,111.81c.44.97,1.09,1.79,1.94,2.42-4.09,2.34-8.17,4.67-12.26,7.01-.85-.64-1.49-1.46-1.94-2.42,3.68-2.1,8.58-4.9,12.26-7.01Z"/>
      <polygon class="cls-3" points="88.59 48.87 100.85 41.86 106.54 47.09 94.29 54.1 88.59 48.87"/>
      <polygon class="cls-3" points="89.65 47.51 101.91 40.5 107.59 45.71 95.33 52.72 89.65 47.51"/>
      <polygon class="cls-3" points="86.43 40.71 98.69 33.7 98.56 36.46 86.31 43.47 86.43 40.71"/>
      <polygon class="cls-3" points="88.18 41.02 100.44 34.01 100.32 36.77 88.06 43.77 88.18 41.02"/>
      <path class="cls-3" d="M86.31,43.47l12.26-7.01c-.03.65-.03,1.17,0,1.6.02.51.12.99.3,1.41l-12.26,7.01c-.18-.42-.29-.9-.3-1.41-.02-.42-.02-.95,0-1.6Z"/>
      <polygon class="cls-2" points="89.69 41.28 101.95 34.27 101.68 40.25 89.43 47.26 89.69 41.28"/>
      <path class="cls-3" d="M100.04,41.08c.23.23.49.49.81.78l-12.26,7.01c-.31-.29-.58-.55-.81-.78,4.09-2.34,8.17-4.67,12.26-7.01Z"/>
      <polygon class="cls-3" points="127.17 116.11 139.43 109.1 139.2 109.69 126.95 116.7 127.17 116.11"/>
      <path class="cls-2" d="M135.76,102.35c0,.18-.02.48-.35.67l-12.26,7.01c.33-.19.34-.49.35-.67,3.68-2.1,8.58-4.9,12.26-7.01Z"/>
      <polygon class="cls-2" points="104.08 105.15 116.33 98.14 135.8 101.53 123.54 108.54 104.08 105.15"/>
      <path class="cls-3" d="M88.05,45.19l12.26-7.01c.01.26.06.5.14.69l-12.26,7.01c-.08-.19-.12-.43-.14-.69Z"/>
      <polygon class="cls-3" points="129.01 116.43 141.27 109.42 141.42 110.12 129.16 117.13 129.01 116.43"/>
      <polygon class="cls-3" points="127.17 116.11 139.43 109.1 141.27 109.42 129.01 116.43 127.17 116.11"/>
      <polygon class="cls-2" points="89.43 47.26 101.68 40.25 111.86 42.02 99.6 49.03 89.43 47.26"/>
      <path class="cls-3" d="M88.19,45.88l12.26-7.01c.09.19.22.39.41.59.27.29.62.64,1.05,1.04l-12.26,7.01c-.44-.4-.79-.75-1.05-1.04-.19-.2-.32-.4-.41-.59Z"/>
      <path class="cls-3" d="M136.4,104.68l-12.26,7.01c.86-.49,1.08-1.37,1.11-2.03l12.26-7.01c-.03.65-.24,1.53-1.11,2.03Z"/>
      <path class="cls-3" d="M88.06,43.77l12.26-7.01c-.03.58-.03,1.06,0,1.41l-12.26,7.01c-.02-.36-.02-.83,0-1.41Z"/>
      <path class="cls-3" d="M94.29,54.1l12.26-7.01c.64.57,1.18,1.13,1.57,1.67l-12.26,7.01c-.4-.54-.93-1.1-1.57-1.67Z"/>
      <path class="cls-3" d="M109.48,52.26c.06.71.08,1.57.04,2.56l-12.26,7.01c.04-.99.03-1.85-.04-2.56-.07-.67-.21-1.29-.44-1.86-.03-.08-.07-.17-.1-.25,4.09-2.34,8.17-4.67,12.26-7.01.04.08.07.17.1.25.23.57.38,1.19.44,1.86Z"/>
      <path class="cls-3" d="M108.94,50.15c-4.09,2.34-8.17,4.67-12.26,7.01-.21-.48-.49-.95-.82-1.38l12.26-7.01c.33.44.61.9.82,1.38Z"/>
      <polygon class="cls-3" points="125.38 106.98 137.63 99.97 137.51 102.65 125.25 109.66 125.38 106.98"/>
      <polygon class="cls-3" points="105.91 103.59 118.17 96.58 137.63 99.97 125.38 106.98 105.91 103.59"/>
      <path class="cls-2" d="M142.14,114.23c1.18.9,2.79,1.51,4.95,1.89l-12.26,7.01c-2.16-.38-3.77-.99-4.95-1.89,0,0,0,0,0,0,4.09-2.34,8.17-4.67,12.26-7.01,0,0,0,0,0,0Z"/>
      <path class="cls-2" d="M91.14,25.61c-.44,1.34-.72,3-.8,4.96l-12.26,7.01c.09-1.96.36-3.62.8-4.96.47-1.4,1.2-2.5,2.17-3.28,4.09-2.34,8.17-4.67,12.26-7.01-4.09,2.34-8.17,4.67-12.26,7.01.25-.2.51-.38.79-.54l12.26-7.01c-.28.16-.54.34-.79.54-.97.77-1.7,1.88-2.17,3.28Z"/>
      <path class="cls-3" d="M82.79,30.5l12.26-7.01c-.21.12-.4.25-.58.39-.73.59-1.28,1.44-1.65,2.54-.4,1.18-.64,2.67-.72,4.46l-12.26,7.01c.08-1.79.32-3.28.72-4.46.37-1.1.92-1.95,1.65-2.54.18-.14.38-.27.58-.39Z"/>
      <path class="cls-3" d="M129.16,117.13l12.26-7.01c.25,1.13.78,1.99,1.62,2.62.91.69,2.3,1.2,4.13,1.52l-12.26,7.01c-1.83-.32-3.22-.83-4.13-1.52-.84-.63-1.37-1.49-1.62-2.62Z"/>
      <path class="cls-3" d="M95.33,52.72l12.26-7.01c.73.66,1.37,1.33,1.85,1.99.5.67.91,1.4,1.21,2.15.3.76.49,1.58.58,2.43.08.81.1,1.76.05,2.85l-12.26,7.01c.05-1.09.04-2.04-.05-2.85-.08-.86-.28-1.67-.58-2.43-.3-.75-.71-1.48-1.21-2.15-.49-.66-1.12-1.33-1.85-1.99Z"/>
      <path class="cls-3" d="M99.28,30.67c-.34.59-.52,1.56-.59,3.04l-12.26,7.01c.07-1.48.25-2.45.59-3.04.17-.31.4-.54.68-.7l12.26-7.01c-.28.16-.51.4-.68.7Z"/>
      <path class="cls-3" d="M88.55,38.77l12.26-7.01c-.09.15-.29.68-.36,2.24l-12.26,7.01c.07-1.56.28-2.09.36-2.24Z"/>
      <path class="cls-3" d="M88.66,38.65l12.26-7.01c-.06.03-.09.08-.11.12l-12.26,7.01s.05-.09.11-.12Z"/>
      <path class="cls-2" d="M101.1,31.6c-4.09,2.34-8.17,4.67-12.26,7.01-.08,0-.14.02-.18.04l12.26-7.01s.1-.04.18-.04Z"/>
      <path class="cls-2" d="M101.96,33.06c.01.32.01.72,0,1.21l-12.26,7.01c.02-.5.02-.89,0-1.21,4.09-2.34,8.17-4.67,12.26-7.01Z"/>
      <path class="cls-2" d="M101.1,31.6c.06,0,.13,0,.22.02-4.09,2.34-8.17,4.67-12.26,7.01-.09-.02-.16-.02-.22-.02.16-.09.38-.22.55-.31,3.04-1.74,6.08-3.48,9.13-5.22l1.39-.8c.11-.06.25-.14.36-.2.17-.1.34-.2.52-.29.1-.06.21-.15.32-.18Z"/>
      <path class="cls-2" d="M101.96,33.06c-4.09,2.34-8.17,4.67-12.26,7.01-.03-.68-.12-1-.17-1.12l12.26-7.01c.05.12.14.44.17,1.12Z"/>
      <path class="cls-2" d="M101.31,31.62c.38.07.44.22.48.32l-12.26,7.01c-.04-.1-.1-.25-.48-.32h0c4.09-2.34,8.17-4.67,12.26-7.01,0,0,0,0,0,0Z"/>
      <polygon class="cls-3" points="91.45 41.58 103.71 34.58 103.52 38.7 91.26 45.71 91.45 41.58"/>
      <path class="cls-3" d="M87.7,36.97l12.26-7.01c.39-.22.88-.3,1.44-.2l-12.26,7.01c-.56-.1-1.04-.03-1.44.2Z"/>
      <polygon class="cls-2" points="134.83 123.13 147.09 116.12 151.33 116.86 139.07 123.87 134.83 123.13"/>
      <polygon class="cls-3" points="133.29 110.23 145.55 103.22 145.53 103.69 133.27 110.7 133.29 110.23"/>
      <path class="cls-3" d="M143.77,103.39c-.04.98.33,1.85,1.09,2.53-4.09,2.34-8.17,4.67-12.26,7.01-.76-.68-1.13-1.55-1.09-2.53,3.68-2.1,8.58-4.9,12.26-7.01Z"/>
      <path class="cls-3" d="M89.14,36.77l12.26-7.01c.94.16,1.65.74,2.01,1.62.27.7.37,1.71.3,3.19l-12.26,7.01c.07-1.48-.03-2.5-.3-3.19-.35-.88-1.07-1.46-2.01-1.62Z"/>
      <polygon class="cls-3" points="134.91 121.27 147.17 114.26 151.41 115 139.15 122 134.91 121.27"/>
      <polygon class="cls-3" points="131.62 108.06 143.88 101.06 143.77 103.39 131.51 110.39 131.62 108.06"/>
      <path class="cls-3" d="M144.86,105.92c.66.59,1.54.98,2.63,1.17l-12.26,7.01c-1.09-.19-1.97-.58-2.63-1.17,4.09-2.34,8.17-4.67,12.26-7.01Z"/>
      <polygon class="cls-3" points="91.26 45.71 103.52 38.7 110.19 39.86 97.93 46.87 91.26 45.71"/>
      <path class="cls-3" d="M133.27,110.7l12.26-7.01c-.02.35.09.59.37.84.38.33.94.57,1.68.7l-12.26,7.01c-.74-.13-1.31-.36-1.68-.7-.28-.25-.38-.49-.37-.84Z"/>
      <path class="cls-3" d="M82.79,30.5l12.26-7.01c.64-.36,1.39-.6,2.25-.72,1.2-.15,2.69-.07,4.41.23l-12.26,7.01c-1.72-.3-3.21-.38-4.41-.23-.86.11-1.61.35-2.25.72Z"/>
      <polygon class="cls-3" points="135.23 114.09 147.49 107.08 150.41 107.59 138.15 114.6 135.23 114.09"/>
      <polygon class="cls-3" points="135.32 112.24 147.57 105.23 150.49 105.74 138.23 112.74 135.32 112.24"/>
      <polygon class="cls-3" points="98.19 41.08 110.45 34.08 110.19 39.86 97.93 46.87 98.19 41.08"/>
      <polygon class="cls-2" points="140.74 111.53 153 104.52 152.96 105.34 140.7 112.35 140.74 111.53"/>
      <path class="cls-3" d="M138.23,112.74l12.26-7.01c1.51.26,2.05.15,2.22.1l-12.26,7.01c-.17.05-.71.16-2.22-.1Z"/>
      <path class="cls-3" d="M153.74,107.49l-12.26,7.01c-.1.06-.21.11-.32.15-.63.22-1.59.2-3.01-.04l12.26-7.01c1.42.25,2.38.26,3.01.04.11-.04.22-.09.32-.15Z"/>
      <path class="cls-3" d="M152.78,105.8l-12.26,7.01s-.05.02-.08.03l12.26-7.01s.05-.01.08-.03Z"/>
      <path class="cls-2" d="M151.33,116.86c3.16.55,5.67.3,7.46-.72l-12.26,7.01c-1.79,1.03-4.3,1.27-7.46.72,3.68-2.1,8.09-6.28,12.26-7.01Z"/>
      <path class="cls-3" d="M157.81,114.46l-12.26,7.01c-1.47.84-3.62,1.02-6.4.53l12.26-7.01c2.78.48,4.93.31,6.4-.53Z"/>
      <polygon class="cls-3" points="99.95 41.39 112.2 34.38 111.86 42.02 99.6 49.03 99.95 41.39"/>
      <path class="cls-2" d="M152.78,105.8l-12.26,7.01c.08-.05.16-.15.18-.46l12.26-7.01c-.01.31-.1.42-.18.46Z"/>
      <polygon class="cls-2" points="133.29 110.23 145.55 103.23 153 104.52 140.74 111.53 133.29 110.23"/>
      <path class="cls-3" d="M153.74,107.49l-12.26,7.01c.6-.34.94-.98.98-1.84l12.26-7.01c-.04.86-.38,1.5-.98,1.84Z"/>
      <polygon class="cls-3" points="131.62 108.06 143.88 101.06 154.84 102.96 142.58 109.97 131.62 108.06"/>
      <polygon class="cls-3" points="142.58 109.97 154.84 102.96 154.71 105.65 142.46 112.65 142.58 109.97"/>
      <polygon class="cls-3" points="106.22 96.71 118.48 89.7 161.39 97.17 149.13 104.17 106.22 96.71"/>
      <polygon class="cls-3" points="149.13 104.17 161.39 97.17 160.96 106.73 148.7 113.74 149.13 104.17"/>
      <polygon class="cls-3" points="150.97 102.62 163.22 95.62 162.71 107.04 150.45 114.04 150.97 102.62"/>
      <path class="cls-3" d="M157.81,114.46l-12.26,7.01c.26-.15.49-.31.71-.5,1.45-1.26,2.28-3.7,2.43-7.23l12.26-7.01c-.16,3.53-.98,5.97-2.43,7.23-.22.19-.45.36-.71.5Z"/>
      <path class="cls-3" d="M104.55,94.55l46.41,8.08-.51,11.42c-.18,4.04-1.19,6.88-2.99,8.45-1.81,1.56-4.64,2.03-8.39,1.38l-4.24-.74c-2.16-.38-3.77-.99-4.95-1.89-.85-.64-1.5-1.46-1.94-2.43-.55.83-1.29,1.42-2.17,1.74-1.22.45-2.83.5-4.95.13l-17.3-3.01.48-10.6,17.3,3.01c2.16.38,2.19-.4,2.21-.74l.04-.82-19.46-3.39.48-10.6ZM148.7,113.74l.43-9.57-42.91-7.46-.31,6.88,19.46,3.39-.12,2.68c-.05,1.11-.64,2.88-4.04,2.29l-15.55-2.71-.31,6.88,15.55,2.71c1.8.31,3.18.3,4.12-.05.87-.33,1.5-1.01,1.92-2.08l.23-.59,1.84.32.15.7c.25,1.13.78,1.99,1.62,2.62.91.69,2.3,1.2,4.13,1.52l4.24.74c3.26.57,5.66.23,7.11-1.04,1.45-1.26,2.28-3.7,2.43-7.23"/>
      <path class="cls-3" d="M132.6,112.92c-.76-.68-1.13-1.55-1.09-2.53l.1-2.33,10.96,1.91-.12,2.68c-.04,1-.51,1.71-1.3,1.99-.63.22-1.59.2-3.01-.04l-2.92-.51c-1.09-.19-1.97-.58-2.63-1.17ZM133.29,110.23l-.02.47c-.02.35.09.59.37.84.38.33.94.57,1.68.7l2.92.51c1.51.26,2.05.15,2.22.1.09-.03.23-.08.25-.49l.04-.82-7.45-1.3"/>
      <path class="cls-3" d="M106.22,96.71l42.91,7.46-.43,9.57c-.16,3.53-.98,5.97-2.43,7.23-1.45,1.26-3.85,1.6-7.11,1.04l-4.24-.74c-1.83-.32-3.22-.83-4.13-1.52-.84-.63-1.37-1.49-1.62-2.62l-.15-.7-1.84-.32-.23.59c-.42,1.07-1.05,1.75-1.92,2.08-.94.35-2.32.36-4.12.05l-15.55-2.71.31-6.88,15.55,2.71c3.41.59,3.99-1.17,4.04-2.29l.12-2.68-19.46-3.39.31-6.88ZM142.46,112.65l.12-2.68-10.96-1.91-.1,2.33c-.04.98.33,1.85,1.09,2.53.66.59,1.54.98,2.63,1.17l2.92.51c1.42.25,2.38.26,3.01.04.79-.27,1.25-.99,1.3-1.99"/>
      <path class="cls-2" d="M140.41,112.85s.03,0,.04-.01c.03,0,.07-.02.11-.06.07-.06.13-.18.14-.44l.04-.82-7.45-1.3-.02.47c-.02.35.09.59.37.84.23.21.54.38.92.51.08.03.15.05.24.07.16.05.34.08.52.12l2.92.51c.19.03.36.06.52.08.23.03.44.05.61.07,0,0,.02,0,.03,0,.29.02.52.02.68.01.07,0,.12-.01.17-.02.07-.01.13-.02.17-.03Z"/>
      <path class="cls-3" d="M96.42,33.41c4.09-2.34,8.17-4.67,12.26-7.01-4.08,2.34-8.17,4.67-12.25,7.01,0,0,0,0,0,0Z"/>
      <path class="cls-3" d="M110.45,34.08c-4.09,2.33-8.17,4.67-12.26,7.01.15-3.41-.45-5.98-1.77-7.67,4.09-2.34,8.17-4.67,12.25-7.01-4.09,2.34-8.17,4.67-12.26,7.01-1.33-1.69-3.68-2.83-6.97-3.4l12.26-7.01c3.29.57,5.64,1.71,6.97,3.4,1.33,1.69,1.93,4.26,1.77,7.67Z"/>
      <path class="cls-3" d="M99.6,49.03l-10.18-1.77.27-5.98c.07-1.56-.09-2.15-.16-2.33-.04-.1-.1-.25-.48-.32s-.46.06-.51.15c-.09.15-.29.68-.36,2.24l-.12,2.76c-.03.58-.03,1.06,0,1.41.01.26.06.5.14.69.09.19.22.39.41.59.27.29.62.64,1.05,1.04l5.68,5.21c.73.66,1.37,1.33,1.85,1.99.5.67.91,1.4,1.21,2.15.3.76.49,1.58.58,2.43.08.81.1,1.76.05,2.85l-.28,6.15c-.18,3.92-1.19,6.66-3.02,8.16-1.81,1.49-4.65,1.92-8.42,1.26-1.89-.33-3.51-.82-4.84-1.46-1.38-.67-2.53-1.57-3.4-2.68-.88-1.11-1.5-2.45-1.84-3.97-.32-1.45-.44-3.17-.35-5.13l.34-7.54,10.18,1.77-.26,5.87c-.07,1.57.09,2.15.16,2.33.04.11.1.25.49.32s.45-.06.5-.15c.09-.15.29-.68.36-2.24l.12-2.7c.02-.52.01-.96-.04-1.31-.04-.31-.12-.61-.25-.89-.12-.27-.3-.55-.54-.84-.28-.33-.68-.72-1.17-1.16l-4.74-4.36c-.82-.76-1.51-1.52-2.06-2.25-.57-.76-1.03-1.57-1.36-2.41-.33-.82-.56-1.73-.68-2.69-.11-.91-.14-1.95-.09-3.07l.25-5.57c.09-1.96.36-3.62.8-4.96.47-1.4,1.2-2.5,2.17-3.28.96-.77,2.16-1.25,3.58-1.42,1.36-.18,3.01-.1,4.9.23,3.77.66,6.52,2.05,8.18,4.15,1.67,2.11,2.42,5.16,2.24,9.09l-.34,7.64ZM89.14,36.77c.94.16,1.65.74,2.01,1.62.27.7.37,1.71.3,3.19l-.19,4.13,6.67,1.16.26-5.79c.15-3.41-.45-5.98-1.77-7.67-1.33-1.69-3.68-2.83-6.97-3.4-1.72-.3-3.21-.38-4.41-.23-1.14.15-2.09.52-2.83,1.11-.73.59-1.28,1.44-1.65,2.54-.4,1.18-.64,2.67-.72,4.46l-.25,5.57c-.05,1.01-.02,1.93.08,2.74.09.77.28,1.5.53,2.16.26.65.62,1.29,1.08,1.9.47.63,1.08,1.29,1.8,1.95l4.73,4.36c.56.5,1,.95,1.35,1.35.38.44.68.91.89,1.38.21.47.35.97.41,1.48.07.48.08,1.04.05,1.67l-.12,2.7c-.07,1.48-.25,2.45-.58,3.04-.42.74-1.18,1.07-2.12.9s-1.66-.74-2.01-1.62c-.27-.7-.37-1.71-.3-3.19l.18-4.01-6.67-1.16-.25,5.68c-.08,1.78.03,3.32.3,4.59.27,1.2.74,2.23,1.41,3.08.68.86,1.58,1.55,2.68,2.09,1.17.57,2.64,1,4.36,1.3,3.29.57,5.71.26,7.17-.94,1.46-1.2,2.28-3.53,2.43-6.93l.28-6.15c.04-.99.03-1.85-.04-2.56-.07-.67-.21-1.29-.44-1.86-.22-.57-.53-1.12-.92-1.63-.4-.54-.93-1.1-1.57-1.67l-5.7-5.23c-.49-.46-.86-.82-1.16-1.14-.36-.39-.65-.81-.83-1.25-.18-.42-.29-.9-.3-1.41-.02-.42-.02-.95,0-1.6l.12-2.76c.07-1.48.25-2.45.59-3.04.42-.74,1.17-1.07,2.12-.9"/>
      <path class="cls-3" d="M89.44,30.01c3.29.57,5.64,1.71,6.97,3.4,1.33,1.69,1.93,4.26,1.77,7.67l-.26,5.79-6.67-1.16.19-4.13c.07-1.48-.03-2.5-.3-3.19-.35-.88-1.07-1.46-2.01-1.62s-1.7.16-2.12.9c-.34.59-.52,1.56-.59,3.04l-.12,2.76c-.03.65-.03,1.17,0,1.6.02.51.12.99.3,1.41.18.44.46.86.83,1.25.3.32.67.69,1.16,1.14l5.7,5.23c.64.57,1.18,1.13,1.57,1.67.39.51.7,1.06.92,1.63.23.57.38,1.19.44,1.86.06.71.08,1.57.04,2.56l-.28,6.15c-.15,3.4-.97,5.72-2.43,6.93-1.46,1.2-3.87,1.51-7.17.94-1.72-.3-3.19-.73-4.36-1.3-1.1-.54-2-1.23-2.68-2.09-.67-.85-1.14-1.88-1.41-3.08-.28-1.27-.38-2.81-.3-4.59l.25-5.68,6.67,1.16-.18,4.01c-.07,1.49.03,2.5.3,3.19.35.88,1.07,1.46,2.01,1.62s1.7-.16,2.12-.9c.33-.59.52-1.56.58-3.04l.12-2.7c.03-.63.01-1.18-.05-1.67-.06-.51-.2-1-.41-1.48s-.51-.94-.89-1.38c-.35-.4-.79-.84-1.35-1.35l-4.73-4.36c-.72-.66-1.33-1.33-1.8-1.95-.46-.61-.82-1.25-1.08-1.9-.26-.66-.44-1.38-.53-2.16-.1-.81-.13-1.73-.08-2.74l.25-5.57c.08-1.79.32-3.28.72-4.46.37-1.1.92-1.95,1.65-2.54.74-.59,1.69-.96,2.83-1.11,1.2-.15,2.69-.07,4.41.23Z"/>
      <path class="cls-3" d="M81.85,28.81l12.26-7.01c.8-.46,1.73-.76,2.78-.89,1.36-.18,3.01-.1,4.9.23,3.77.66,6.52,2.05,8.18,4.15,1.67,2.11,2.42,5.16,2.24,9.09l-12.26,7.01c.18-3.93-.58-6.98-2.24-9.09-1.66-2.1-4.41-3.49-8.18-4.15-1.89-.33-3.53-.4-4.9-.23-1.05.13-1.98.43-2.78.89Z"/>
      <path class="cls-3" d="M158.79,116.14l-12.26,7.01c.33-.19.65-.41.93-.66,1.8-1.56,2.81-4.4,2.99-8.45l12.26-7.01c-.18,4.04-1.19,6.88-2.99,8.45-.29.25-.6.46-.93.66Z"/>
      <polygon class="cls-3" points="104.55 94.55 116.81 87.54 163.22 95.62 150.97 102.62 104.55 94.55"/>
      <path class="cls-2" d="M89.92,19.39c41.74,7.26,74.08,49.07,72.1,93.19-1.98,44.13-37.54,74.13-79.28,66.86-41.74-7.26-74.09-49.08-72.11-93.2C12.61,42.11,48.18,12.12,89.92,19.39ZM74.49,116.53c.26-1.33.17-2.79-.27-4.34-.42-1.5-1.16-3.17-2.2-5.01-2.09-3.67-4.37-5.97-6.77-6.84-.39-.14-.79-.25-1.2-.32-2.13-.37-4.54.2-7.19,1.71l-4.95,2.82c-.87.5-1.59.99-2.16,1.46-.61.5-1.11,1.08-1.49,1.72-.38.63-.65,1.35-.83,2.14-.17.75-.26,1.65-.25,2.63l-.12,7.62c-.02.59-.04,1.06-.08,1.44-.03.27-.09.5-.18.67s-.25.33-.44.47c-.26.19-.62.42-1.1.69l-2.22,1.26c-1.26.72-1.81.8-1.99.79-.19-.02-.31-.09-.48-.38-.21-.37-.14-.51-.08-.6.09-.15.44-.59,1.7-1.3l4.81-2.74-5.62-9.88-6.15,3.5c-3.15,1.79-5,3.98-5.48,6.5-.49,2.51.33,5.64,2.42,9.3,1.05,1.83,2.12,3.33,3.18,4.45,1.12,1.16,2.32,1.99,3.57,2.46.41.15.82.26,1.24.33.9.16,1.83.14,2.78-.05,1.33-.26,2.81-.86,4.39-1.75l4.49-2.55c.91-.52,1.69-1.06,2.31-1.62.65-.58,1.2-1.22,1.62-1.93.42-.7.73-1.52.93-2.4.19-.85.29-1.84.32-2.95l.11-6.37c0-.66.04-1.2.1-1.61.06-.36.14-.67.27-.9.13-.26.31-.48.52-.67.25-.23.58-.46.99-.69l2.17-1.24c1.27-.71,1.81-.8,1.99-.79.18.02.31.09.47.38.22.38.14.51.08.6-.09.15-.43.59-1.7,1.3l-4.71,2.68,5.62,9.89,6.06-3.45c1.58-.9,2.83-1.86,3.73-2.86.94-1.06,1.55-2.26,1.8-3.59M99.6,49.03l.34-7.64c.18-3.93-.58-6.98-2.24-9.09-1.66-2.1-4.41-3.49-8.18-4.15-1.89-.33-3.53-.4-4.9-.23-1.42.17-2.62.66-3.58,1.42-.97.77-1.7,1.88-2.17,3.28-.44,1.34-.72,3-.8,4.96l-.25,5.57c-.05,1.12-.02,2.16.09,3.07.12.95.35,1.86.68,2.69.33.84.79,1.65,1.36,2.41.56.74,1.25,1.5,2.06,2.25l4.74,4.36c.49.45.89.84,1.17,1.16.24.29.42.56.54.84.12.28.2.58.25.89.05.35.06.79.04,1.31l-.12,2.7c-.07,1.56-.28,2.09-.36,2.24-.05.08-.12.21-.5.15s-.44-.21-.49-.32c-.07-.18-.23-.76-.16-2.33l.26-5.87-10.18-1.77-.34,7.54c-.09,1.95.03,3.68.35,5.13.34,1.52.95,2.85,1.84,3.97.87,1.11,2.02,2.01,3.4,2.68,1.33.63,2.95,1.13,4.84,1.46,3.77.66,6.61.23,8.42-1.26,1.83-1.5,2.84-4.25,3.02-8.16l.28-6.15c.05-1.09.04-2.04-.05-2.85-.08-.86-.28-1.67-.58-2.43-.3-.75-.71-1.48-1.21-2.15-.49-.66-1.12-1.33-1.85-1.99l-5.68-5.21c-.44-.4-.79-.75-1.05-1.04-.19-.2-.32-.4-.41-.59-.08-.19-.12-.43-.14-.69-.02-.36-.02-.83,0-1.41l.12-2.76c.07-1.56.28-2.09.36-2.24.05-.08.12-.21.51-.15s.44.22.48.32c.07.18.23.77.16,2.33l-.27,5.98,10.18,1.77M147.46,122.49c1.8-1.56,2.81-4.4,2.99-8.45l.51-11.42-46.41-8.07-.48,10.6,19.46,3.39-.04.82c-.01.33-.05,1.11-2.21.74l-17.3-3.01-.48,10.6,17.3,3.01c2.12.37,3.74.32,4.95-.13.88-.33,1.62-.91,2.17-1.74.44.97,1.09,1.79,1.94,2.43,1.18.9,2.79,1.51,4.95,1.89l4.24.74c3.75.65,6.58.18,8.39-1.38"/>
      <path class="cls-3" d="M74.22,112.19c.44,1.55.53,3.01.28,4.34-.25,1.33-.86,2.54-1.8,3.59-.9,1.01-2.15,1.97-3.73,2.86l-6.06,3.45-5.62-9.89,4.71-2.68c1.27-.71,1.61-1.15,1.7-1.3.05-.08.14-.22-.08-.6-.16-.29-.28-.35-.38-.37-.27-.01-.82.07-2.08.78l-2.17,1.24c-.41.23-.74.46-.99.69-.22.19-.39.41-.52.67-.13.24-.22.54-.27.9-.06.41-.09.95-.1,1.61l-.11,6.37c-.03,1.11-.13,2.1-.32,2.95-.2.88-.51,1.7-.93,2.4-.41.71-.96,1.36-1.62,1.93-.62.56-1.4,1.1-2.31,1.62l-4.49,2.55c-1.58.89-3.05,1.48-4.39,1.75-.96.2-1.88.21-2.78.05-.42-.07-.84-.19-1.24-.33-1.25-.47-2.45-1.3-3.57-2.46-1.06-1.12-2.14-2.62-3.18-4.45-2.09-3.66-2.9-6.79-2.42-9.3.48-2.52,2.32-4.71,5.48-6.5l6.15-3.5,5.62,9.88-4.81,2.74c-1.26.72-1.6,1.15-1.7,1.3-.05.08-.13.22.08.6.16.28.29.36.39.37.27,0,.82-.07,2.08-.79l2.22-1.26c.47-.27.84-.5,1.1-.69.2-.14.35-.3.44-.47.1-.17.15-.39.18-.67.04-.38.06-.86.08-1.44l.12-7.62c0-.99.08-1.88.25-2.63.18-.79.45-1.5.83-2.14.38-.64.88-1.22,1.49-1.72.57-.47,1.29-.96,2.16-1.46l4.95-2.82c2.65-1.5,5.05-2.08,7.19-1.7.41.07.81.18,1.2.32,2.41.86,4.68,3.16,6.77,6.84,1.05,1.83,1.79,3.51,2.2,5.01ZM72.77,115.95c.2-1.03.12-2.18-.23-3.42-.37-1.32-1.04-2.83-2-4.51-1.83-3.21-3.74-5.2-5.68-5.9-.29-.1-.59-.18-.9-.24-1.76-.31-3.82.21-6.14,1.54l-4.95,2.81c-.79.45-1.45.89-1.95,1.31-.47.39-.86.84-1.14,1.32-.28.48-.5,1.03-.63,1.63-.14.62-.21,1.38-.21,2.24l-.12,7.65c-.02.66-.05,1.18-.09,1.6-.05.51-.19.97-.39,1.35-.2.37-.49.7-.87.98-.31.22-.72.48-1.25.78l-2.22,1.26c-1.19.68-2.07,1-2.75.99-.12,0-.24-.01-.35-.03-.71-.12-1.34-.61-1.79-1.39-.52-.91-.56-1.82-.13-2.57.35-.6,1.07-1.19,2.26-1.86l3.33-1.9-3.71-6.51-4.67,2.66c-2.75,1.56-4.32,3.37-4.72,5.39-.39,2.03.35,4.68,2.18,7.89.95,1.68,1.92,3.03,2.86,4.02.9.94,1.84,1.6,2.81,1.96.3.11.61.2.93.25.69.12,1.42.1,2.18-.05,1.18-.23,2.5-.77,3.94-1.59l4.49-2.55c.82-.46,1.52-.95,2.06-1.43.54-.47.98-.99,1.3-1.55.33-.56.57-1.2.73-1.9.16-.74.25-1.6.27-2.57l.11-6.36c0-.75.05-1.36.12-1.87.08-.56.24-1.05.46-1.48.22-.42.51-.78.86-1.1.32-.3.74-.59,1.24-.87l2.17-1.24c1.19-.68,2.07-1,2.75-.99.13,0,.25.01.37.03.71.12,1.33.61,1.78,1.39.52.91.56,1.82.12,2.57-.34.59-1.06,1.17-2.26,1.86l-3.24,1.84,3.71,6.51,4.58-2.61c1.43-.81,2.56-1.68,3.35-2.56.75-.84,1.23-1.77,1.42-2.79"/>
      <path class="cls-2" d="M70.98,13.97c-4.09,2.34-8.17,4.67-12.26,7.01-4.85,1.43-9.47,3.4-13.79,5.87l12.26-7.01c4.32-2.47,8.94-4.45,13.79-5.87Z"/>
      <path class="cls-2" d="M167.31,134.84c-6.02,12.99-15.57,23.41-27.35,30.14l-12.26,7.01c11.78-6.73,21.33-17.14,27.35-30.14,4.09-2.34,8.17-4.67,12.26-7.01Z"/>
      <path class="cls-2" d="M70.98,13.97c9.64-2.83,20.2-3.5,31.2-1.59l-12.26,7.01c-10.99-1.91-21.56-1.24-31.2,1.59.17-.1.39-.22.55-.32,3.08-1.76,6.17-3.53,9.25-5.29.44-.25.88-.5,1.32-.75.28-.16.55-.31.83-.47.09-.05.21-.13.3-.17Z"/>
      <path class="cls-2" d="M167.31,134.84s-.06.03-.08.05c-.15.09-.3.17-.46.26-.06.03-.13.08-.19.11-.24.14-.49.28-.73.42-3.6,2.06-7.2,4.11-10.8,6.17,4.04-8.71,6.49-18.57,6.97-29.27,0-.01,0-.02,0-.03,4.09-2.34,8.17-4.67,12.26-7.01,0,.01,0,.02,0,.03-.48,10.7-2.93,20.56-6.97,29.27Z"/>
      <path class="cls-2" d="M157.21,48.66c-4.09,2.34-8.17,4.67-12.26,7.01-13.13-18.67-32.74-32.4-55.03-36.28l12.26-7.01c22.29,3.88,41.9,17.61,55.03,36.28Z"/>
      <path class="cls-2" d="M157.21,48.66c11.45,16.29,17.98,36.33,17.07,56.88-4.09,2.34-8.17,4.67-12.26,7.01.91-20.55-5.61-40.6-17.07-56.88,4.09-2.34,8.17-4.67,12.26-7.01Z"/>
      <path class="cls-3" d="M90.42,8.24C42.87-.03,2.35,34.14.1,84.41c-2.26,50.27,34.59,97.9,82.14,106.17,47.54,8.27,88.06-25.9,90.31-76.17,2.26-50.27-34.59-97.9-82.13-106.17ZM162.02,112.58c-1.98,44.13-37.54,74.13-79.28,66.86-41.74-7.26-74.09-49.08-72.11-93.2C12.61,42.11,48.18,12.12,89.92,19.39c41.74,7.26,74.08,49.07,72.1,93.19"/>
      <path class="cls-3" d="M39.53,135.07c.23.08.47.14.71.18.69.12,1.42.1,2.18-.05,1.18-.23,2.5-.77,3.94-1.59l4.49-2.55c.82-.46,1.52-.95,2.06-1.43.54-.47.98-.99,1.3-1.55.33-.56.57-1.2.73-1.9.16-.74.25-1.6.27-2.57l.11-6.36c0-.75.05-1.36.12-1.87.08-.56.24-1.05.46-1.48.22-.42.51-.78.86-1.1.32-.3.74-.59,1.24-.87l2.17-1.24c.89-.51,1.61-.81,2.2-.93.1-.02.19-.04.29-.05.09,0,.18-.01.27-.01.13,0,.25.01.37.03.24.04.46.13.67.24.06.03.12.07.18.11.19.13.38.3.55.49.11.13.21.28.31.43.02.04.05.07.07.11.06.11.12.23.17.34.35.8.34,1.58-.05,2.23-.34.59-1.06,1.17-2.26,1.86l-3.24,1.84,3.71,6.51,4.58-2.61c.72-.41,1.36-.83,1.91-1.25.56-.43,1.04-.86,1.43-1.31.37-.42.68-.86.92-1.33.24-.47.4-.95.5-1.46.07-.38.11-.79.11-1.21,0,0,0-.01,0-.02,0-.69-.12-1.43-.33-2.2-.37-1.32-1.04-2.83-2-4.51-.39-.69-.79-1.32-1.19-1.9-.27-.39-.54-.75-.81-1.08-.27-.33-.53-.63-.8-.91-.95-.98-1.91-1.66-2.88-2.01-.1-.04-.2-.06-.3-.09-.19-.06-.39-.11-.59-.14-.22-.04-.45-.06-.68-.08-1.6-.09-3.43.45-5.46,1.61l-4.95,2.81c-.79.45-1.45.89-1.95,1.31-.47.39-.86.84-1.14,1.32-.28.48-.5,1.03-.63,1.63-.14.62-.21,1.38-.21,2.24l-.12,7.65c-.02.66-.04,1.18-.09,1.6-.05.51-.19.97-.39,1.35-.2.37-.49.7-.87.98-.31.22-.72.48-1.25.78l-2.22,1.26c-1.19.68-2.07,1-2.75.99-.12,0-.24-.01-.35-.03-.44-.08-.85-.29-1.21-.64-.08-.08-.16-.16-.23-.26-.12-.15-.24-.32-.34-.5,0,0,0,0,0,0-.18-.31-.29-.63-.36-.93,0-.04-.02-.08-.02-.12-.07-.43-.04-.85.12-1.23.04-.1.09-.19.14-.29.09-.15.2-.3.34-.45.41-.45,1.03-.91,1.92-1.42l3.33-1.9-3.71-6.51-4.67,2.66c-1.89,1.07-3.22,2.26-4,3.56-.35.59-.59,1.2-.72,1.83-.05.25-.08.52-.09.79-.09,1.91.67,4.29,2.27,7.1.05.09.1.17.15.26.14.25.29.49.43.72.32.51.63.99.95,1.42.45.62.89,1.16,1.33,1.62.61.64,1.24,1.14,1.88,1.52.31.18.62.33.93.45.07.03.15.05.22.07Z"/>
      <path class="cls-3" d="M39.2,16.73l12.26-7.01C66.14,1.34,83.86-2.04,102.68,1.23l-12.26,7.01c-18.82-3.27-36.54.1-51.22,8.49Z"/>
      <path class="cls-3" d="M145.71,175.08l-12.26,7.01c22.41-12.81,37.74-37.3,39.1-67.68,2.26-50.27-34.59-97.9-82.13-106.17l12.26-7.01c47.54,8.27,84.39,55.9,82.13,106.17-1.36,30.37-16.69,54.87-39.1,67.68Z"/>
    </g>
  </g>
</svg>