<?xml version="1.0" encoding="UTF-8"?>
<svg id="Capa_2" data-name="Capa 2" xmlns="http://www.w3.org/2000/svg" viewBox="0 0 257.81 257.81">
  <defs>
    <style>
      .cls-1 {
        isolation: isolate;
      }

      .cls-2 {
        fill: #fff;
      }

      .cls-3 {
        fill: #e62c3f;
      }

      .cls-4 {
        fill: #151515;
      }
    </style>
  </defs>
  <g id="Capa_1-2" data-name="Capa 1">
    <g>
      <rect class="cls-3" width="257.81" height="257.81"/>
      <g class="cls-1">
        <path class="cls-4" d="M82.31,58.93l12.26-7.01c-19.67,11.24-33.12,32.74-34.32,59.4-1.98,44.13,30.36,85.94,72.11,93.2l-12.26,7.01c-41.74-7.26-74.09-49.08-72.11-93.2,1.2-26.66,14.65-48.16,34.32-59.4Z"/>
        <path class="cls-2" d="M92.56,162.14c1.33-.26,2.81-.86,4.39-1.75l-12.26,7.01c-1.58.89-3.05,1.48-4.39,1.75-.96.2-1.88.21-2.78.06,4.09-2.34,8.17-4.67,12.26-7.01.9.16,1.82.14,2.78-.06Z"/>
        <path class="cls-2" d="M89.77,162.2h0c-4.09,2.34-8.17,4.67-12.26,7.01,0,0,0,0,0,0,0,0,0,0,0,0,4.07-2.33,8.15-4.66,12.22-6.98-4.07,2.33-8.15,4.66-12.22,6.98-.42-.07-.83-.19-1.24-.33-1.25-.47-2.45-1.3-3.57-2.46-1.06-1.12-2.14-2.62-3.18-4.45-2.09-3.66-2.9-6.79-2.42-9.3.48-2.52,2.32-4.71,5.48-6.5l12.26-7.01c-3.15,1.79-5,3.98-5.48,6.5-.49,2.51.33,5.64,2.42,9.3,1.05,1.83,2.12,3.33,3.18,4.45,1.12,1.16,2.32,1.99,3.57,2.46.41.15.82.26,1.24.33Z"/>
        <path class="cls-4" d="M73.54,147.83l12.26-7.01c-2.75,1.56-4.32,3.37-4.72,5.39-.39,2.03.35,4.68,2.18,7.89.95,1.68,1.92,3.03,2.86,4.02.9.94,1.84,1.6,2.81,1.96.3.11.61.2.93.25.69.12,1.42.1,2.18-.05,1.18-.23,2.5-.77,3.94-1.59l-12.26,7.01c-1.44.82-2.76,1.36-3.94,1.59-.76.15-1.49.17-2.18.05-.32-.06-.63-.14-.93-.25-.97-.36-1.91-1.02-2.81-1.96-.94-.99-1.91-2.34-2.86-4.02-1.83-3.21-2.56-5.86-2.18-7.89.39-2.02,1.97-3.83,4.72-5.39Z"/>
        <path class="cls-4" d="M88.71,151c-1.51.86-3.02,1.72-4.52,2.59-2.58,1.47-5.15,2.95-7.73,4.42,0,0,0,0,0,0,4.09-2.34,8.17-4.67,12.26-7.01Z"/>
        <path class="cls-4" d="M88.72,151c.45.79,1.08,1.27,1.79,1.39-4.09,2.34-8.17,4.67-12.26,7.01-.71-.12-1.34-.61-1.79-1.39,0,0,0,0,0,0,0,0,0,0,0,0,2.31-1.32,4.62-2.64,6.93-3.96,1.78-1.01,3.55-2.03,5.32-3.04,0,0,0,0,0,0Z"/>
        <path class="cls-4" d="M90.5,152.39c.12.02.23.03.35.03-4.09,2.34-8.17,4.67-12.26,7.01-.12,0-.24-.01-.35-.03,4.07-2.32,8.13-4.65,12.2-6.97-4.07,2.32-8.13,4.65-12.2,6.97,0,0,0,0,0,0,0,0,0,0,0,0,4.09-2.34,8.17-4.67,12.26-7.01,0,0,0,0,0,0Z"/>
        <path class="cls-4" d="M90.86,152.43s0,0,0,0c-4.09,2.34-8.17,4.67-12.26,7.01,0,0,0,0,0,0,.21-.12.49-.28.7-.4,2.08-1.19,4.15-2.37,6.23-3.56.24-.14.56-.32.8-.46s.56-.32.79-.45c.47-.27,1.09-.62,1.55-.89.23-.13.53-.3.75-.43.43-.25.95-.69,1.43-.82Z"/>
        <path class="cls-4" d="M93.61,151.43c-4.09,2.34-8.17,4.67-12.26,7.01-1.19.68-2.07,1-2.75.99,4.09-2.34,8.17-4.67,12.26-7.01.68,0,1.56-.32,2.75-.99Z"/>
        <path class="cls-4" d="M78.31,157.54l12.26-7.01c.27,0,.82-.07,2.08-.79l-12.26,7.01c-1.26.72-1.81.8-2.08.79Z"/>
        <polygon class="cls-4" points="78.58 153.58 90.84 146.57 94.18 144.68 81.92 151.68 78.58 153.58"/>
        <path class="cls-4" d="M88.58,148.43c-.43.74-.38,1.65.13,2.56-4.09,2.34-8.17,4.67-12.26,7.01-.52-.91-.56-1.82-.13-2.56.35-.6,1.07-1.19,2.26-1.86l12.26-7.01c-1.19.68-1.9,1.27-2.26,1.86Z"/>
        <path class="cls-4" d="M79.54,155.27l12.26-7.01c-1.26.72-1.6,1.15-1.7,1.3-.05.08-.13.22.08.6.16.28.29.36.39.37l-12.26,7.01c-.1-.02-.22-.09-.39-.37-.21-.37-.14-.51-.08-.6.09-.15.44-.59,1.7-1.3Z"/>
        <polygon class="cls-4" points="81.35 158.44 93.61 151.43 95.83 150.17 83.57 157.17 81.35 158.44"/>
        <polygon class="cls-4" points="80.39 156.76 92.65 149.75 94.87 148.48 82.61 155.49 80.39 156.76"/>
        <path class="cls-2" d="M95.97,147.79c-.26.19-.62.42-1.1.69l-12.26,7.01c.47-.27.84-.5,1.1-.69.16-.11.29-.24.38-.37,4.09-2.34,8.17-4.67,12.26-7.01-.09.13-.22.26-.38.37Z"/>
        <path class="cls-2" d="M96.35,147.42s-.1.05-.14.08c-.09.05-.2.11-.29.16-.15.09-.3.17-.45.26-.09.05-.22.12-.31.18-.4.23-.79.45-1.19.68-3.29,1.88-6.59,3.77-9.88,5.65.02-.03.04-.06.06-.1h0c4.09-2.34,8.17-4.67,12.26-7.01,0,0,0,0,0,0-.02.03-.04.06-.06.1Z"/>
        <path class="cls-2" d="M96.48,147.19s-.04.09-.06.13c-4.09,2.34-8.17,4.67-12.26,7.01.02-.04.04-.08.06-.13,4.09-2.34,8.17-4.67,12.26-7.01Z"/>
        <polygon class="cls-2" points="79.54 155.27 91.8 148.26 96.61 145.52 84.35 152.53 79.54 155.27"/>
        <polygon class="cls-4" points="78.21 145.17 90.47 138.16 94.18 144.68 81.92 151.68 78.21 145.17"/>
        <polygon class="cls-4" points="73.54 147.83 85.8 140.83 90.47 138.16 78.21 145.17 73.54 147.83"/>
        <polygon class="cls-4" points="78.72 142.65 90.98 135.64 96.61 145.52 84.35 152.53 78.72 142.65"/>
        <polygon class="cls-2" points="84.54 144.6 96.79 137.59 96.68 145.21 84.42 152.22 84.54 144.6"/>
        <polygon class="cls-4" points="86.29 144.82 98.55 137.82 98.43 145.47 86.17 152.47 86.29 144.82"/>
        <path class="cls-2" d="M96.48,147.19s-.12.07-.17.1c-.44.25-.87.5-1.31.75l-1.48.85c-3.1,1.77-6.2,3.54-9.3,5.31.06-.15.1-.33.12-.54.04-.38.06-.86.08-1.44l12.26-7.01c-.02.59-.04,1.06-.08,1.44-.02.21-.06.39-.12.54Z"/>
        <path class="cls-4" d="M95.91,150.12l-12.26,7.01c.48-.28.87-.52,1.16-.73.38-.28.67-.61.87-.98.21-.38.34-.83.39-1.35.04-.42.07-.94.09-1.6l12.26-7.01c-.02.66-.05,1.18-.09,1.6-.05.51-.19.97-.39,1.35-.2.37-.49.7-.87.98-.3.21-.68.45-1.16.73Z"/>
        <path class="cls-4" d="M95.91,150.12l-12.26,7.01s-.05.03-.08.05l12.26-7.01s.05-.03.08-.05Z"/>
        <polygon class="cls-2" points="84.68 167.4 96.94 160.4 101.43 157.84 89.17 164.85 84.68 167.4"/>
        <polygon class="cls-4" points="83.72 165.71 95.98 158.71 100.47 156.15 88.21 163.16 83.72 165.71"/>
        <path class="cls-4" d="M100.51,156.13l-12.26,7.01s-.03.02-.04.02l12.26-7.01s.03-.02.04-.02Z"/>
        <polygon class="cls-4" points="92.69 149.34 104.95 142.33 104.84 148.7 92.58 155.7 92.69 149.34"/>
        <polygon class="cls-4" points="94.45 149.58 106.71 142.57 106.6 148.94 94.34 155.95 94.45 149.58"/>
        <path class="cls-4" d="M100.51,156.13l-12.26,7.01c.8-.46,1.48-.93,2.02-1.41.54-.47.98-.99,1.3-1.55.33-.56.57-1.2.73-1.9.16-.74.25-1.6.27-2.57l12.26-7.01c-.02.97-.11,1.83-.27,2.57-.16.7-.4,1.34-.73,1.9-.33.56-.77,1.08-1.3,1.55-.54.48-1.22.95-2.02,1.41Z"/>
        <path class="cls-4" d="M101.47,157.82l-12.26,7.01c.89-.51,1.66-1.05,2.27-1.6.66-.58,1.2-1.22,1.62-1.93.42-.7.73-1.51.93-2.4.19-.85.29-1.84.32-2.95l12.26-7.01c-.03,1.11-.13,2.1-.32,2.95-.2.88-.51,1.7-.93,2.4-.41.71-.96,1.36-1.62,1.93-.61.55-1.38,1.09-2.27,1.6Z"/>
        <path class="cls-2" d="M101.43,157.84s.02-.01.03-.02l-12.26,7.01s-.02.01-.03.02c3.68-2.1,8.58-4.91,12.26-7.01Z"/>
        <polygon class="cls-4" points="72.58 146.15 84.84 139.14 90.98 135.64 78.72 142.65 72.58 146.15"/>
        <path class="cls-2" d="M96.88,135.94c-.06.51-.09,1.06-.09,1.65l-12.26,7.01c0-.59.03-1.14.09-1.65,4.09-2.34,8.17-4.67,12.26-7.01Z"/>
        <path class="cls-2" d="M96.88,135.94c-4.09,2.34-8.17,4.67-12.26,7.01.04-.35.1-.68.16-.98.05-.24.12-.47.19-.69,4.09-2.34,8.17-4.67,12.26-7.01-.07.22-.13.45-.19.69-.07.31-.12.63-.16.98Z"/>
        <polygon class="cls-2" points="94.64 148.64 106.9 141.64 112.53 151.52 100.27 158.53 94.64 148.64"/>
        <path class="cls-2" d="M97.23,134.27c-.05.06-.15.08-.21.12-.13.08-.31.18-.44.25-.4.23-.79.45-1.19.68-.61.35-1.23.7-1.84,1.05-2.86,1.63-5.72,3.27-8.58,4.9.16-.52.38-1.01.64-1.45.38-.64.87-1.22,1.49-1.72.32-.27.7-.54,1.11-.82,4.09-2.34,8.17-4.67,12.26-7.01-.42.28-.79.55-1.11.82-.61.5-1.11,1.08-1.49,1.72-.27.44-.48.93-.64,1.45Z"/>
        <polygon class="cls-4" points="95.37 144.03 107.63 137.02 109.8 135.78 97.54 142.79 95.37 144.03"/>
        <path class="cls-4" d="M95.35,144.04l12.26-7.01c-.49.28-.9.57-1.22.86-.35.32-.64.68-.86,1.1-.22.43-.38.92-.46,1.48-.07.5-.11,1.12-.12,1.87l-12.26,7.01c0-.75.05-1.36.12-1.87.08-.56.24-1.05.46-1.48.22-.42.51-.78.86-1.1.32-.29.73-.58,1.22-.86Z"/>
        <path class="cls-4" d="M94.82,147.07l12.26-7.01c-.13.24-.22.54-.27.9-.06.41-.09.95-.1,1.61l-12.26,7.01c0-.66.04-1.2.1-1.61.06-.36.14-.67.27-.9Z"/>
        <polygon class="cls-4" points="90.22 138.33 102.48 131.32 107.43 128.51 95.18 135.52 90.22 138.33"/>
        <path class="cls-4" d="M90.2,138.34l12.26-7.01c-.78.45-1.43.88-1.92,1.3-.47.39-.86.84-1.14,1.32-.28.48-.5,1.03-.63,1.63-.14.62-.21,1.38-.21,2.24l-12.26,7.01c0-.86.07-1.61.21-2.24.13-.6.35-1.15.63-1.63.28-.48.67-.93,1.14-1.32.49-.41,1.14-.85,1.92-1.3Z"/>
        <path class="cls-4" d="M90.2,138.34l12.26-7.01s.02-.01.03-.02l-12.26,7.01s-.02.01-.03.02Z"/>
        <path class="cls-2" d="M100.48,130.28c-.18.11-.43.25-.62.36-.68.39-1.36.78-2.04,1.16-.89.51-1.77,1.01-2.66,1.52-2.31,1.32-4.63,2.65-6.94,3.97.32-.21.67-.43,1.04-.64l12.26-7.01c-.38.22-.72.43-1.04.64Z"/>
        <polygon class="cls-4" points="97.07 149.5 109.33 142.49 113.04 149 100.79 156.01 97.07 149.5"/>
        <polygon class="cls-2" points="96.33 145.71 108.59 138.7 110.76 137.47 98.5 144.47 96.33 145.71"/>
        <path class="cls-4" d="M96.31,145.72l12.26-7.01c-.4.23-.72.45-.96.67-.22.19-.39.41-.52.67l-12.26,7.01c.13-.25.31-.48.52-.67.24-.22.57-.45.96-.68Z"/>
        <path class="cls-2" d="M108.56,138.72s.02,0,.02-.01l-12.26,7.01s-.02,0-.02.01c3.68-2.1,8.58-4.9,12.26-7.01Z"/>
        <path class="cls-4" d="M95.35,144.04l12.26-7.01s.01,0,.02,0l-12.26,7.01s-.01,0-.02,0Z"/>
        <polygon class="cls-4" points="97.07 149.5 109.33 142.49 112.57 140.64 100.31 147.65 97.07 149.5"/>
        <polygon class="cls-4" points="94.64 148.64 106.9 141.64 111.61 138.95 99.35 145.96 94.64 148.64"/>
        <path class="cls-4" d="M111.68,138.91l-12.26,7.01s-.05.03-.07.04l12.26-7.01s.05-.03.07-.04Z"/>
        <path class="cls-2" d="M112.7,138.25c-.24.18-.57.4-1.02.66l-12.26,7.01c.45-.26.78-.48,1.02-.66,4.09-2.34,8.17-4.67,12.26-7.01Z"/>
        <polygon class="cls-2" points="100.27 158.53 112.53 151.52 118.58 148.07 106.32 155.08 100.27 158.53"/>
        <polygon class="cls-4" points="100.79 156.01 113.04 149 117.62 146.39 105.36 153.4 100.79 156.01"/>
        <polygon class="cls-4" points="89.26 136.64 101.52 129.64 106.48 126.82 94.22 133.83 89.26 136.64"/>
        <path class="cls-4" d="M120.97,143.83c-.78.87-1.89,1.73-3.3,2.53l-12.26,7.01c1.41-.8,2.52-1.66,3.3-2.53.75-.84,1.23-1.77,1.42-2.79,0,0,0,0,0,0,4.09-2.34,8.17-4.67,12.26-7.01,0,0,0,0,0,0-.19,1.02-.67,1.95-1.42,2.79Z"/>
        <path class="cls-4" d="M117.67,146.36l-12.26,7.01s-.03.02-.05.03l12.26-7.01s.03-.02.05-.03Z"/>
        <path class="cls-4" d="M122.16,137.62c.35,1.25.43,2.4.23,3.42-4.09,2.34-8.17,4.67-12.26,7.01.2-1.03.12-2.18-.23-3.42,4.09-2.34,8.17-4.67,12.26-7.01Z"/>
        <path class="cls-4" d="M118.64,148.04l-12.26,7.01c1.55-.89,2.79-1.84,3.67-2.83.94-1.06,1.55-2.26,1.8-3.59.26-1.33.16-2.79-.28-4.34l12.26-7.01c.44,1.55.53,3.01.28,4.34-.25,1.33-.86,2.54-1.8,3.59-.89.99-2.12,1.94-3.67,2.83Z"/>
        <path class="cls-2" d="M118.58,148.07s.03-.02.05-.03l-12.26,7.01s-.03.02-.05.03c3.68-2.1,8.58-4.91,12.26-7.01Z"/>
        <path class="cls-2" d="M112.7,138.25c-.08.05-.19.11-.27.16-.6.34-1.19.68-1.79,1.02-.09.05-.22.12-.31.18-.79.45-1.58.9-2.37,1.36-2.5,1.43-5.01,2.86-7.51,4.29.4-.31.55-.51.6-.6l12.26-7.01c-.05.09-.2.29-.6.6Z"/>
        <path class="cls-2" d="M98.5,144.47l12.26-7.01c1.27-.71,1.81-.8,1.99-.79l-12.26,7.01c-.18,0-.73.08-1.99.79Z"/>
        <path class="cls-2" d="M112.79,136.68c-4.09,2.34-8.17,4.67-12.26,7.01-.01,0-.03,0-.04,0l12.26-7.01s.03,0,.04,0Z"/>
        <path class="cls-2" d="M113.22,137.05c-4.09,2.34-8.17,4.67-12.26,7.01-.15-.27-.27-.34-.43-.37.21-.12.48-.27.68-.39,3.76-2.15,7.51-4.29,11.27-6.44.06-.03.11-.06.17-.09.03-.02.07-.04.1-.06.01,0,.02-.02.04-.02.16.03.28.11.43.37Z"/>
        <path class="cls-2" d="M100.96,144.06l12.26-7.01c.22.38.14.51.08.6l-12.26,7.01c.05-.08.14-.22-.08-.6Z"/>
        <path class="cls-4" d="M97.54,142.79l12.26-7.01c1.19-.68,2.07-1,2.75-.99.13,0,.25.01.37.03.71.12,1.33.61,1.78,1.39.52.91.56,1.82.12,2.57-.34.59-1.06,1.17-2.26,1.86l-12.26,7.01c1.19-.68,1.91-1.27,2.26-1.86.44-.75.39-1.66-.12-2.57-.45-.78-1.07-1.27-1.78-1.39-.12-.02-.24-.03-.37-.03-.68,0-1.56.32-2.75.99Z"/>
        <path class="cls-4" d="M113.58,126.97c-4.09,2.33-8.17,4.67-12.26,7.01-1.76-.31-3.82.21-6.14,1.54l12.26-7.01c2.33-1.33,4.39-1.84,6.14-1.54Z"/>
        <path class="cls-4" d="M122.16,137.61s0,0,0,0c-4.09,2.34-8.17,4.67-12.26,7.01,0,0,0,0,0,0,0,0,0,0,0,0,4.09-2.34,8.17-4.67,12.26-7.01,0,0,0,0,0,0Z"/>
        <path class="cls-4" d="M120.16,133.11c.95,1.67,1.62,3.19,2,4.5-4.09,2.34-8.17,4.67-12.26,7.01-.37-1.32-1.04-2.83-2-4.5-1.83-3.21-3.74-5.2-5.68-5.9-.29-.1-.59-.18-.9-.24l12.26-7.01c.31.05.61.13.9.24,1.94.7,3.85,2.68,5.68,5.9Z"/>
        <path class="cls-4" d="M94.22,133.83l12.26-7.01c2.65-1.5,5.05-2.08,7.19-1.7.41.07.81.18,1.2.32,2.41.86,4.68,3.16,6.77,6.84,1.05,1.83,1.79,3.51,2.2,5.01l-12.26,7.01c-.42-1.5-1.16-3.17-2.2-5.01-2.09-3.67-4.37-5.97-6.77-6.84-.39-.14-.79-.25-1.2-.32-2.13-.37-4.54.2-7.19,1.7Z"/>
        <path class="cls-4" d="M177.31,197.07l-12.26,7.01c-12.89,7.37-28.44,10.33-44.96,7.45l12.26-7.01c16.52,2.87,32.07-.09,44.96-7.45Z"/>
        <polygon class="cls-2" points="141.35 139.17 153.61 132.17 153.13 142.77 140.88 149.77 141.35 139.17"/>
        <polygon class="cls-4" points="143.02 141.33 155.28 134.33 154.97 141.21 142.71 148.22 143.02 141.33"/>
        <polygon class="cls-2" points="114.58 89.03 126.83 82.02 126.49 89.56 114.24 96.57 114.58 89.03"/>
        <polygon class="cls-4" points="116.25 91.19 128.5 84.19 128.25 89.87 115.99 96.87 116.25 91.19"/>
        <path class="cls-2" d="M136.92,102.79c3.25.56,5.8.33,7.6-.7l-12.26,7.01c-1.8,1.03-4.36,1.27-7.6.7-1.89-.33-3.51-.82-4.84-1.46-1.38-.67-2.53-1.57-3.4-2.68-.88-1.11-1.5-2.45-1.84-3.97-.32-1.45-.44-3.17-.35-5.13l12.26-7.01c-.09,1.95.03,3.68.35,5.13.34,1.52.95,2.85,1.84,3.97.87,1.11,2.02,2.01,3.4,2.68,1.33.63,2.95,1.13,4.84,1.46Z"/>
        <path class="cls-4" d="M143.57,100.41l-12.26,7.01c-1.49.85-3.69,1.02-6.56.52-1.72-.3-3.19-.73-4.36-1.3-1.1-.54-2-1.23-2.68-2.09-.67-.85-1.14-1.88-1.41-3.08-.28-1.27-.38-2.81-.3-4.59l12.26-7.01c-.08,1.78.03,3.32.3,4.59.27,1.2.74,2.23,1.41,3.08.68.86,1.58,1.55,2.68,2.09,1.17.57,2.64,1,4.36,1.3,2.87.5,5.07.33,6.56-.52Z"/>
        <path class="cls-4" d="M132.34,94.24c-3.1,1.77-6.2,3.55-9.3,5.32,0,0,0,0,0,0,3.1-1.77,6.2-3.55,9.31-5.32Z"/>
        <path class="cls-4" d="M137.31,94.17c-4.09,2.34-8.17,4.67-12.26,7.01-.95-.17-1.66-.74-2.01-1.62h0s0,0,0,0c0,0,0,0,0,0,.32-.18.74-.43,1.06-.61.17-.09.39-.22.55-.32s.39-.23.56-.32c.78-.45,1.56-.89,2.34-1.34,2.58-1.47,5.15-2.95,7.73-4.42,0,0,0,0,0,0,.35.88,1.07,1.46,2.01,1.62Z"/>
        <path class="cls-4" d="M134.36,95.86c-3.1,1.77-6.2,3.55-9.3,5.32h0s0,0,0,0c3.1-1.77,6.2-3.55,9.31-5.32Z"/>
        <polygon class="cls-4" points="116.25 91.19 128.5 84.19 135.17 85.35 122.91 92.35 116.25 91.19"/>
        <polygon class="cls-4" points="122.91 92.35 135.17 85.35 134.99 89.36 122.73 96.36 122.91 92.35"/>
        <polygon class="cls-4" points="124.75 90.8 137.01 83.79 136.75 89.66 124.49 96.67 124.75 90.8"/>
        <path class="cls-4" d="M135.3,92.55c-4.09,2.34-8.17,4.67-12.26,7.01-.27-.7-.37-1.71-.3-3.19l12.26-7.01c-.07,1.49.03,2.5.3,3.19Z"/>
        <path class="cls-4" d="M137.31,94.17c.55.1,1.04.02,1.43-.2l-12.26,7.01c-.39.23-.88.3-1.43.2,4.09-2.34,8.17-4.67,12.26-7.01,0,0,0,0,0,0Z"/>
        <polygon class="cls-2" points="126.12 94.23 138.38 87.23 138.26 89.92 126 96.93 126.12 94.23"/>
        <path class="cls-4" d="M137.78,92.29l-12.26,7.01c-.07.04-.18.06-.39.03-.39-.07-.44-.21-.49-.32-.07-.18-.23-.76-.16-2.33l12.26-7.01c-.07,1.57.09,2.15.16,2.33.04.11.1.25.49.32.2.04.32.01.39-.03Z"/>
        <path class="cls-2" d="M137.89,92.17s-.05.09-.11.12l-12.26,7.01c.06-.03.09-.08.11-.12,3.68-2.1,8.58-4.9,12.26-7.01Z"/>
        <polygon class="cls-2" points="141.91 126.64 154.17 119.64 153.7 130.24 141.44 137.24 141.91 126.64"/>
        <path class="cls-2" d="M138.15,91.13c-4.09,2.34-8.17,4.67-12.26,7.01.04-.31.08-.71.1-1.21l12.26-7.01c-.02.5-.06.9-.1,1.21Z"/>
        <polygon class="cls-4" points="127.87 94.54 140.13 87.53 140.01 90.23 127.75 97.24 127.87 94.54"/>
        <path class="cls-2" d="M138.15,91.13c-.09.66-.2.93-.26,1.04l-12.26,7.01c.06-.1.17-.38.26-1.04,4.09-2.34,8.17-4.67,12.26-7.01Z"/>
        <polygon class="cls-4" points="143.58 128.8 155.84 121.79 155.53 128.68 143.28 135.69 143.58 128.8"/>
        <polygon class="cls-4" points="114.57 89.03 126.83 82.02 137.01 83.79 124.75 90.8 114.57 89.03"/>
        <polygon class="cls-2" points="119.38 85.67 131.64 78.66 136.38 83.02 124.13 90.03 119.38 85.67"/>
        <polygon class="cls-4" points="120.44 84.3 132.7 77.3 137.43 81.66 125.17 88.66 120.44 84.3"/>
        <path class="cls-2" d="M130.96,78c.22.22.44.44.68.66l-12.26,7.01c-.24-.22-.46-.44-.68-.66,4.09-2.34,8.17-4.67,12.26-7.01Z"/>
        <path class="cls-4" d="M131.92,106.99c.15-.1.37-.21.52-.3,1.33-.76,2.67-1.52,4-2.29,1.59-.91,3.19-1.82,4.78-2.73-3.1,1.77-6.2,3.55-9.31,5.32,0,0,0,0,0,0Z"/>
        <polygon class="cls-2" points="140.88 149.77 153.13 142.77 170.44 145.78 158.18 152.79 140.88 149.77"/>
        <path class="cls-2" d="M130.96,78c-4.09,2.34-8.17,4.67-12.26,7.01-.53-.54-.99-1.07-1.38-1.59-.57-.76-1.03-1.57-1.36-2.41-.33-.82-.56-1.73-.68-2.69-.04-.37-.08-.76-.1-1.16,4.09-2.34,8.17-4.67,12.26-7.01.02.41.05.8.1,1.16.12.95.35,1.86.68,2.69.33.84.79,1.65,1.36,2.41.39.52.86,1.06,1.38,1.59Z"/>
        <polygon class="cls-4" points="142.71 148.22 154.97 141.21 170.52 143.92 158.26 150.92 142.71 148.22"/>
        <path class="cls-4" d="M138.74,93.97l-12.26,7.01c.28-.16.51-.39.68-.7.33-.59.52-1.56.58-3.04l12.26-7.01c-.07,1.48-.25,2.45-.58,3.04-.18.31-.41.54-.68.7Z"/>
        <polygon class="cls-2" points="115.44 69.68 127.7 62.67 127.45 68.24 115.19 75.25 115.44 69.68"/>
        <polygon class="cls-4" points="117.2 69.98 129.46 62.98 129.21 68.55 116.95 75.55 117.2 69.98"/>
        <path class="cls-2" d="M127.45,70.15c-4.09,2.34-8.17,4.67-12.26,7.01-.03-.6-.03-1.24,0-1.91l12.26-7.01c-.03.67-.03,1.31,0,1.91Z"/>
        <path class="cls-2" d="M138.37,86.26c.02.28.02.61,0,.97l-12.26,7.01c.02-.36.02-.69,0-.97,4.09-2.34,8.17-4.67,12.26-7.01Z"/>
        <path class="cls-2" d="M137.61,84.26c-4.09,2.34-8.17,4.67-12.26,7.01-.02-.02-.04-.05-.06-.07-.28-.33-.68-.72-1.17-1.16l12.26-7.01c.49.45.89.84,1.17,1.16.02.02.04.05.06.07Z"/>
        <path class="cls-2" d="M138.37,86.26c-4.09,2.34-8.17,4.67-12.26,7.01,0-.12-.02-.24-.03-.34-.04-.28-.11-.55-.21-.81,4.09-2.34,8.17-4.67,12.26-7.01.1.26.17.53.21.81.01.11.03.22.03.34Z"/>
        <path class="cls-2" d="M138.13,85.11c-4.09,2.34-8.17,4.67-12.26,7.01-.01-.03-.02-.06-.04-.09-.11-.25-.27-.5-.48-.76,4.09-2.34,8.17-4.67,12.26-7.01.21.26.37.51.48.76.01.03.02.06.04.09Z"/>
        <path class="cls-4" d="M116.95,75.55l12.26-7.01c-.05,1.01-.02,1.93.08,2.74.09.77.28,1.5.53,2.16.26.65.62,1.29,1.08,1.9.47.63,1.08,1.29,1.8,1.95l-12.26,7.01c-.72-.66-1.33-1.33-1.8-1.95-.46-.61-.82-1.25-1.08-1.9-.26-.66-.44-1.38-.53-2.16-.1-.81-.13-1.73-.08-2.74Z"/>
        <path class="cls-4" d="M125.17,88.66l12.26-7.01c.56.5,1,.95,1.35,1.35.38.44.68.91.89,1.38.21.47.35.97.41,1.48.07.48.08,1.04.05,1.67l-12.26,7.01c.03-.63.01-1.18-.05-1.67-.06-.51-.2-1-.41-1.48-.21-.47-.51-.94-.89-1.38-.35-.4-.79-.84-1.35-1.35Z"/>
        <polygon class="cls-4" points="143.02 141.33 155.28 134.33 170.83 137.03 158.57 144.04 143.02 141.33"/>
        <path class="cls-2" d="M176.04,145.34l-12.26,7.01c-.21.12-.42.22-.65.3-1.21.45-2.83.5-4.95.13l12.26-7.01c2.12.37,3.74.32,4.95-.13.23-.08.45-.19.65-.3Z"/>
        <path class="cls-4" d="M175.07,143.66l-12.26,7.01c-.14.08-.28.15-.43.2-.94.35-2.32.36-4.12.05l12.26-7.01c1.8.31,3.18.3,4.12-.05.15-.06.3-.12.43-.2Z"/>
        <polygon class="cls-4" points="134.62 93.92 146.88 86.91 146.6 93.06 134.35 100.07 134.62 93.92"/>
        <polygon class="cls-4" points="136.38 94.22 148.63 87.22 148.36 93.37 136.1 100.37 136.38 94.22"/>
        <path class="cls-4" d="M144.18,99.99c-.19.15-.39.29-.61.42l-12.26,7.01c.22-.12.42-.26.61-.42,4.09-2.34,8.17-4.67,12.26-7.01-4.09,2.34-8.17,4.67-12.26,7.01,1.45-1.2,2.28-3.53,2.43-6.93l12.26-7.01c-.15,3.4-.97,5.72-2.43,6.93Z"/>
        <polygon class="cls-4" points="141.35 139.17 153.61 132.17 170.91 135.18 158.66 142.18 141.35 139.17"/>
        <path class="cls-4" d="M144.53,102.09l-12.26,7.01c.29-.17.56-.35.81-.56,1.83-1.5,2.84-4.25,3.02-8.16l12.26-7.01c-.18,3.92-1.19,6.66-3.02,8.16-.25.21-.52.39-.81.56Z"/>
        <path class="cls-4" d="M176.04,145.34l-12.26,7.01c.6-.34,1.11-.82,1.52-1.44l12.26-7.01c-.41.62-.92,1.1-1.52,1.44Z"/>
        <path class="cls-4" d="M175.07,143.66l-12.26,7.01c.65-.37,1.14-.99,1.49-1.88l12.26-7.01c-.35.89-.84,1.51-1.49,1.88Z"/>
        <polygon class="cls-2" points="160.9 140.63 173.16 133.62 173.12 134.44 160.86 141.45 160.9 140.63"/>
        <path class="cls-4" d="M172.77,135.11l-12.26,7.01c-.29.17-.84.25-1.86.07l12.26-7.01c1.02.18,1.56.1,1.86-.07Z"/>
        <path class="cls-4" d="M137.4,73.18c-4.09,2.34-8.17,4.67-12.26,7.01-.13-.13-.25-.25-.35-.37-.36-.39-.65-.81-.83-1.25l12.26-7.01c.18.44.46.86.83,1.25.11.12.22.24.35.37Z"/>
        <path class="cls-4" d="M173.77,136.77l-12.26,7.01c-.61.35-1.53.5-2.94.26l12.26-7.01c1.4.24,2.33.09,2.94-.26Z"/>
        <path class="cls-2" d="M177.56,143.9c.44.97,1.09,1.79,1.94,2.42-4.09,2.34-8.17,4.67-12.26,7.01-.85-.64-1.49-1.46-1.94-2.42,3.68-2.1,8.58-4.9,12.26-7.01Z"/>
        <polygon class="cls-4" points="125.95 80.96 138.21 73.95 143.91 79.19 131.65 86.19 125.95 80.96"/>
        <polygon class="cls-4" points="127.01 79.6 139.27 72.6 144.95 77.8 132.69 84.81 127.01 79.6"/>
        <polygon class="cls-4" points="123.79 72.81 136.05 65.8 135.93 68.56 123.67 75.56 123.79 72.81"/>
        <polygon class="cls-4" points="125.55 73.11 137.8 66.1 137.68 68.86 125.42 75.87 125.55 73.11"/>
        <path class="cls-4" d="M123.67,75.56l12.26-7.01c-.03.65-.03,1.17,0,1.6.02.51.12.99.3,1.41l-12.26,7.01c-.18-.42-.29-.9-.3-1.41-.02-.42-.02-.95,0-1.6Z"/>
        <polygon class="cls-2" points="127.06 73.37 139.31 66.37 139.04 72.35 126.79 79.35 127.06 73.37"/>
        <path class="cls-4" d="M137.4,73.18c.23.23.49.49.81.78l-12.26,7.01c-.31-.29-.58-.55-.81-.78,4.09-2.34,8.17-4.67,12.26-7.01Z"/>
        <polygon class="cls-4" points="164.53 148.2 176.79 141.19 176.57 141.78 164.31 148.79 164.53 148.2"/>
        <path class="cls-2" d="M173.12,134.44c0,.18-.02.48-.35.67l-12.26,7.01c.33-.19.34-.49.35-.67,3.68-2.1,8.58-4.9,12.26-7.01Z"/>
        <polygon class="cls-2" points="141.44 137.24 153.7 130.24 173.16 133.62 160.9 140.63 141.44 137.24"/>
        <path class="cls-4" d="M125.41,77.28l12.26-7.01c.01.26.06.5.14.69l-12.26,7.01c-.08-.19-.12-.43-.14-.69Z"/>
        <polygon class="cls-4" points="166.37 148.52 178.63 141.51 178.78 142.21 166.53 149.22 166.37 148.52"/>
        <polygon class="cls-4" points="164.53 148.2 176.79 141.19 178.63 141.51 166.37 148.52 164.53 148.2"/>
        <polygon class="cls-2" points="126.79 79.35 139.04 72.35 149.22 74.12 136.96 81.12 126.79 79.35"/>
        <path class="cls-4" d="M125.55,77.97l12.26-7.01c.09.19.22.39.41.59.27.29.62.64,1.05,1.04l-12.26,7.01c-.44-.4-.79-.75-1.05-1.04-.19-.2-.32-.4-.41-.59Z"/>
        <path class="cls-4" d="M173.77,136.77l-12.26,7.01c.86-.49,1.08-1.37,1.11-2.03l12.26-7.01c-.03.65-.24,1.53-1.11,2.03Z"/>
        <path class="cls-4" d="M125.42,75.87l12.26-7.01c-.03.58-.03,1.06,0,1.41l-12.26,7.01c-.02-.36-.02-.83,0-1.41Z"/>
        <path class="cls-4" d="M131.65,86.19l12.26-7.01c.64.57,1.18,1.13,1.57,1.67l-12.26,7.01c-.4-.54-.93-1.1-1.57-1.67Z"/>
        <path class="cls-4" d="M146.84,84.35c.06.71.08,1.57.04,2.56l-12.26,7.01c.04-.99.03-1.85-.04-2.56-.07-.67-.21-1.29-.44-1.86-.03-.08-.07-.17-.1-.25,4.09-2.34,8.17-4.67,12.26-7.01.04.08.07.17.1.25.23.57.38,1.19.44,1.86Z"/>
        <path class="cls-4" d="M146.3,82.24c-4.09,2.34-8.17,4.67-12.26,7.01-.21-.48-.49-.95-.82-1.38l12.26-7.01c.33.44.61.9.82,1.38Z"/>
        <polygon class="cls-4" points="162.74 139.07 174.99 132.06 174.87 134.75 162.62 141.75 162.74 139.07"/>
        <polygon class="cls-4" points="143.28 135.69 155.53 128.68 174.99 132.06 162.74 139.07 143.28 135.69"/>
        <path class="cls-2" d="M179.5,146.33c1.18.9,2.79,1.51,4.95,1.89l-12.26,7.01c-2.16-.38-3.77-.99-4.95-1.89,0,0,0,0,0,0,4.09-2.34,8.17-4.67,12.26-7.01,0,0,0,0,0,0Z"/>
        <path class="cls-2" d="M128.51,57.71c-.44,1.34-.72,3-.8,4.96l-12.26,7.01c.09-1.96.36-3.62.8-4.96.47-1.4,1.2-2.5,2.17-3.28,4.09-2.34,8.17-4.67,12.26-7.01-4.09,2.34-8.17,4.67-12.26,7.01.25-.2.51-.38.79-.54l12.26-7.01c-.28.16-.54.34-.79.54-.97.77-1.7,1.88-2.17,3.28Z"/>
        <path class="cls-4" d="M120.15,62.59l12.26-7.01c-.21.12-.4.25-.58.39-.73.59-1.28,1.44-1.65,2.54-.4,1.18-.64,2.67-.72,4.46l-12.26,7.01c.08-1.79.32-3.28.72-4.46.37-1.1.92-1.95,1.65-2.54.18-.14.38-.27.58-.39Z"/>
        <path class="cls-4" d="M166.53,149.22l12.26-7.01c.25,1.13.78,1.99,1.62,2.62.91.69,2.3,1.2,4.13,1.52l-12.26,7.01c-1.83-.32-3.22-.83-4.13-1.52-.84-.63-1.37-1.49-1.62-2.62Z"/>
        <path class="cls-4" d="M132.69,84.81l12.26-7.01c.73.66,1.37,1.33,1.85,1.99.5.67.91,1.4,1.21,2.15.3.76.49,1.58.58,2.43.08.81.1,1.76.05,2.85l-12.26,7.01c.05-1.09.04-2.04-.05-2.85-.08-.86-.28-1.67-.58-2.43-.3-.75-.71-1.48-1.21-2.15-.49-.66-1.12-1.33-1.85-1.99Z"/>
        <path class="cls-4" d="M136.64,62.76c-.34.59-.52,1.56-.59,3.04l-12.26,7.01c.07-1.48.25-2.45.59-3.04.17-.31.4-.54.68-.7l12.26-7.01c-.28.16-.51.4-.68.7Z"/>
        <path class="cls-4" d="M125.91,70.87l12.26-7.01c-.09.15-.29.68-.36,2.24l-12.26,7.01c.07-1.56.28-2.09.36-2.24Z"/>
        <path class="cls-4" d="M126.02,70.74l12.26-7.01c-.06.03-.09.08-.11.12l-12.26,7.01s.05-.09.11-.12Z"/>
        <path class="cls-2" d="M138.46,63.69c-4.09,2.34-8.17,4.67-12.26,7.01-.08,0-.14.02-.18.04l12.26-7.01s.1-.04.18-.04Z"/>
        <path class="cls-2" d="M139.32,65.15c.01.32.01.72,0,1.21l-12.26,7.01c.02-.5.02-.89,0-1.21,4.09-2.34,8.17-4.67,12.26-7.01Z"/>
        <path class="cls-2" d="M138.46,63.69c.06,0,.13,0,.22.02-4.09,2.34-8.17,4.67-12.26,7.01-.09-.02-.16-.02-.22-.02.16-.09.38-.22.55-.31,3.04-1.74,6.08-3.48,9.13-5.22l1.39-.8c.11-.06.25-.14.36-.2.17-.1.34-.2.52-.29.1-.06.21-.15.32-.18Z"/>
        <path class="cls-2" d="M139.32,65.15c-4.09,2.34-8.17,4.67-12.26,7.01-.03-.68-.12-1-.17-1.12l12.26-7.01c.05.12.14.44.17,1.12Z"/>
        <path class="cls-2" d="M138.68,63.71c.38.07.44.22.48.32l-12.26,7.01c-.04-.1-.1-.25-.48-.32h0c4.09-2.34,8.17-4.67,12.26-7.01,0,0,0,0,0,0Z"/>
        <polygon class="cls-4" points="128.81 73.68 141.07 66.67 140.88 70.8 128.62 77.8 128.81 73.68"/>
        <path class="cls-4" d="M125.06,69.06l12.26-7.01c.39-.22.88-.3,1.44-.2l-12.26,7.01c-.56-.1-1.04-.03-1.44.2Z"/>
        <polygon class="cls-2" points="172.19 155.22 184.45 148.22 188.69 148.95 176.43 155.96 172.19 155.22"/>
        <polygon class="cls-4" points="170.65 142.33 182.91 135.32 182.89 135.79 170.63 142.79 170.65 142.33"/>
        <path class="cls-4" d="M181.13,135.48c-.04.98.33,1.85,1.09,2.53-4.09,2.34-8.17,4.67-12.26,7.01-.76-.68-1.13-1.55-1.09-2.53,3.68-2.1,8.58-4.9,12.26-7.01Z"/>
        <path class="cls-4" d="M126.5,68.86l12.26-7.01c.94.16,1.65.74,2.01,1.62.27.7.37,1.71.3,3.19l-12.26,7.01c.07-1.48-.03-2.5-.3-3.19-.35-.88-1.07-1.46-2.01-1.62Z"/>
        <polygon class="cls-4" points="172.27 153.36 184.53 146.35 188.77 147.09 176.52 154.1 172.27 153.36"/>
        <polygon class="cls-4" points="168.98 140.16 181.24 133.15 181.13 135.48 168.87 142.49 168.98 140.16"/>
        <path class="cls-4" d="M182.22,138.01c.66.59,1.54.98,2.63,1.17l-12.26,7.01c-1.09-.19-1.97-.58-2.63-1.17,4.09-2.34,8.17-4.67,12.26-7.01Z"/>
        <polygon class="cls-4" points="128.62 77.8 140.88 70.8 147.55 71.96 135.29 78.97 128.62 77.8"/>
        <path class="cls-4" d="M170.63,142.79l12.26-7.01c-.02.35.09.59.37.84.38.33.94.57,1.68.7l-12.26,7.01c-.74-.13-1.31-.36-1.68-.7-.28-.25-.38-.49-.37-.84Z"/>
        <path class="cls-4" d="M120.15,62.59l12.26-7.01c.64-.36,1.39-.6,2.25-.72,1.2-.15,2.69-.07,4.41.23l-12.26,7.01c-1.72-.3-3.21-.38-4.41-.23-.86.11-1.61.35-2.25.72Z"/>
        <polygon class="cls-4" points="172.59 146.18 184.85 139.18 187.77 139.68 175.51 146.69 172.59 146.18"/>
        <polygon class="cls-4" points="172.68 144.33 184.94 137.32 187.85 137.83 175.59 144.84 172.68 144.33"/>
        <polygon class="cls-4" points="135.55 73.18 147.81 66.17 147.55 71.96 135.29 78.97 135.55 73.18"/>
        <polygon class="cls-2" points="178.1 143.62 190.36 136.62 190.32 137.43 178.06 144.44 178.1 143.62"/>
        <path class="cls-4" d="M175.59,144.84l12.26-7.01c1.51.26,2.05.15,2.22.1l-12.26,7.01c-.17.05-.71.16-2.22-.1Z"/>
        <path class="cls-4" d="M191.1,139.58l-12.26,7.01c-.1.06-.21.11-.32.15-.63.22-1.59.2-3.01-.04l12.26-7.01c1.42.25,2.38.26,3.01.04.11-.04.22-.09.32-.15Z"/>
        <path class="cls-4" d="M190.14,137.9l-12.26,7.01s-.05.02-.08.03l12.26-7.01s.05-.01.08-.03Z"/>
        <path class="cls-2" d="M188.69,148.95c3.16.55,5.67.3,7.46-.72l-12.26,7.01c-1.79,1.03-4.3,1.27-7.46.72,3.68-2.1,8.09-6.28,12.26-7.01Z"/>
        <path class="cls-4" d="M195.17,146.56l-12.26,7.01c-1.47.84-3.62,1.02-6.4.53l12.26-7.01c2.78.48,4.93.31,6.4-.53Z"/>
        <polygon class="cls-4" points="137.31 73.48 149.57 66.47 149.22 74.12 136.96 81.13 137.31 73.48"/>
        <path class="cls-2" d="M190.14,137.9l-12.26,7.01c.08-.05.16-.15.18-.46l12.26-7.01c-.01.31-.1.42-.18.46Z"/>
        <polygon class="cls-2" points="170.65 142.33 182.91 135.32 190.36 136.62 178.1 143.62 170.65 142.33"/>
        <path class="cls-4" d="M191.1,139.58l-12.26,7.01c.6-.34.94-.98.98-1.84l12.26-7.01c-.04.86-.38,1.5-.98,1.84Z"/>
        <polygon class="cls-4" points="168.98 140.16 181.24 133.15 192.2 135.06 179.94 142.06 168.98 140.16"/>
        <polygon class="cls-4" points="179.94 142.06 192.2 135.06 192.08 137.74 179.82 144.75 179.94 142.06"/>
        <polygon class="cls-4" points="143.58 128.8 155.84 121.79 198.75 129.26 186.49 136.27 143.58 128.8"/>
        <polygon class="cls-4" points="186.49 136.27 198.75 129.26 198.32 138.82 186.06 145.83 186.49 136.27"/>
        <polygon class="cls-4" points="188.33 134.72 200.59 127.71 200.07 139.13 187.81 146.14 188.33 134.72"/>
        <path class="cls-4" d="M195.17,146.56l-12.26,7.01c.26-.15.49-.31.71-.5,1.45-1.26,2.28-3.7,2.43-7.23l12.26-7.01c-.16,3.53-.98,5.97-2.43,7.23-.22.19-.45.36-.71.5Z"/>
        <path class="cls-4" d="M141.91,126.64l46.41,8.08-.51,11.42c-.18,4.04-1.19,6.88-2.99,8.45-1.81,1.56-4.64,2.03-8.39,1.38l-4.24-.74c-2.16-.38-3.77-.99-4.95-1.89-.85-.64-1.5-1.46-1.94-2.43-.55.83-1.29,1.42-2.17,1.74-1.22.45-2.83.5-4.95.13l-17.3-3.01.48-10.6,17.3,3.01c2.16.38,2.19-.4,2.21-.74l.04-.82-19.46-3.39.48-10.6ZM186.06,145.83l.43-9.57-42.91-7.46-.31,6.88,19.46,3.39-.12,2.68c-.05,1.11-.64,2.88-4.04,2.29l-15.55-2.71-.31,6.88,15.55,2.71c1.8.31,3.18.3,4.12-.05.87-.33,1.5-1.01,1.92-2.08l.23-.59,1.84.32.15.7c.25,1.13.78,1.99,1.62,2.62.91.69,2.3,1.2,4.13,1.52l4.24.74c3.26.57,5.66.23,7.11-1.04,1.45-1.26,2.28-3.7,2.43-7.23"/>
        <path class="cls-4" d="M169.96,145.02c-.76-.68-1.13-1.55-1.09-2.53l.1-2.33,10.96,1.91-.12,2.68c-.04,1-.51,1.71-1.3,1.99-.63.22-1.59.2-3.01-.04l-2.92-.51c-1.09-.19-1.97-.58-2.63-1.17ZM170.65,142.33l-.02.47c-.02.35.09.59.37.84.38.33.94.57,1.68.7l2.92.51c1.51.26,2.05.15,2.22.1.09-.03.23-.08.25-.49l.04-.82-7.45-1.3"/>
        <path class="cls-4" d="M143.58,128.8l42.91,7.46-.43,9.57c-.16,3.53-.98,5.97-2.43,7.23-1.45,1.26-3.85,1.6-7.11,1.04l-4.24-.74c-1.83-.32-3.22-.83-4.13-1.52-.84-.63-1.37-1.49-1.62-2.62l-.15-.7-1.84-.32-.23.59c-.42,1.07-1.05,1.75-1.92,2.08-.94.35-2.32.36-4.12.05l-15.55-2.71.31-6.88,15.55,2.71c3.41.59,3.99-1.17,4.04-2.29l.12-2.68-19.46-3.39.31-6.88ZM179.82,144.75l.12-2.68-10.96-1.91-.1,2.33c-.04.98.33,1.85,1.09,2.53.66.59,1.54.98,2.63,1.17l2.92.51c1.42.25,2.38.26,3.01.04.79-.27,1.25-.99,1.3-1.99"/>
        <path class="cls-2" d="M177.77,144.95s.03,0,.04-.01c.03,0,.07-.02.11-.06.07-.06.13-.18.14-.44l.04-.82-7.45-1.3-.02.47c-.02.35.09.59.37.84.23.21.54.38.92.51.08.03.15.05.24.07.16.05.34.08.52.12l2.92.51c.19.03.36.06.52.08.23.03.44.05.61.07,0,0,.02,0,.03,0,.29.02.52.02.68.01.07,0,.12-.01.17-.02.07-.01.13-.02.17-.03Z"/>
        <path class="cls-4" d="M133.78,65.51c4.09-2.34,8.17-4.67,12.26-7.01-4.08,2.34-8.17,4.67-12.25,7.01,0,0,0,0,0,0Z"/>
        <path class="cls-4" d="M147.81,66.17c-4.09,2.33-8.17,4.67-12.26,7.01.15-3.41-.45-5.98-1.77-7.67,4.09-2.34,8.17-4.67,12.25-7.01-4.09,2.34-8.17,4.67-12.26,7.01-1.33-1.69-3.68-2.83-6.97-3.4l12.26-7.01c3.29.57,5.64,1.71,6.97,3.4,1.33,1.69,1.93,4.26,1.77,7.67Z"/>
        <path class="cls-4" d="M136.96,81.13l-10.18-1.77.27-5.98c.07-1.56-.09-2.15-.16-2.33-.04-.1-.1-.25-.48-.32s-.46.06-.51.15c-.09.15-.29.68-.36,2.24l-.12,2.76c-.03.58-.03,1.06,0,1.41.01.26.06.5.14.69.09.19.22.39.41.59.27.29.62.64,1.05,1.04l5.68,5.21c.73.66,1.37,1.33,1.85,1.99.5.67.91,1.4,1.21,2.15.3.76.49,1.58.58,2.43.08.81.1,1.76.05,2.85l-.28,6.15c-.18,3.92-1.19,6.66-3.02,8.16-1.81,1.49-4.65,1.92-8.42,1.26-1.89-.33-3.51-.82-4.84-1.46-1.38-.67-2.53-1.57-3.4-2.68-.88-1.11-1.5-2.45-1.84-3.97-.32-1.45-.44-3.17-.35-5.13l.34-7.54,10.18,1.77-.26,5.87c-.07,1.57.09,2.15.16,2.33.04.11.1.25.49.32s.45-.06.5-.15c.09-.15.29-.68.36-2.24l.12-2.7c.02-.52.01-.96-.04-1.31-.04-.31-.12-.61-.25-.89-.12-.27-.3-.55-.54-.84-.28-.33-.68-.72-1.17-1.16l-4.74-4.36c-.82-.76-1.51-1.52-2.06-2.25-.57-.76-1.03-1.57-1.36-2.41-.33-.82-.56-1.73-.68-2.69-.11-.91-.14-1.95-.09-3.07l.25-5.57c.09-1.96.36-3.62.8-4.96.47-1.4,1.2-2.5,2.17-3.28.96-.77,2.16-1.25,3.58-1.42,1.36-.18,3.01-.1,4.9.23,3.77.66,6.52,2.05,8.18,4.15,1.67,2.11,2.42,5.16,2.24,9.09l-.34,7.64ZM126.5,68.86c.94.16,1.65.74,2.01,1.62.27.7.37,1.71.3,3.19l-.19,4.13,6.67,1.16.26-5.79c.15-3.41-.45-5.98-1.77-7.67-1.33-1.69-3.68-2.83-6.97-3.4-1.72-.3-3.21-.38-4.41-.23-1.14.15-2.09.52-2.83,1.11-.73.59-1.28,1.44-1.65,2.54-.4,1.18-.64,2.67-.72,4.46l-.25,5.57c-.05,1.01-.02,1.93.08,2.74.09.77.28,1.5.53,2.16.26.65.62,1.29,1.08,1.9.47.63,1.08,1.29,1.8,1.95l4.73,4.36c.56.5,1,.95,1.35,1.35.38.44.68.91.89,1.38.21.47.35.97.41,1.48.07.48.08,1.04.05,1.67l-.12,2.7c-.07,1.48-.25,2.45-.58,3.04-.42.74-1.18,1.07-2.12.9s-1.66-.74-2.01-1.62c-.27-.7-.37-1.71-.3-3.19l.18-4.01-6.67-1.16-.25,5.68c-.08,1.78.03,3.32.3,4.59.27,1.2.74,2.23,1.41,3.08.68.86,1.58,1.55,2.68,2.09,1.17.57,2.64,1,4.36,1.3,3.29.57,5.71.26,7.17-.94,1.46-1.2,2.28-3.53,2.43-6.93l.28-6.15c.04-.99.03-1.85-.04-2.56-.07-.67-.21-1.29-.44-1.86-.22-.57-.53-1.12-.92-1.63-.4-.54-.93-1.1-1.57-1.67l-5.7-5.23c-.49-.46-.86-.82-1.16-1.14-.36-.39-.65-.81-.83-1.25-.18-.42-.29-.9-.3-1.41-.02-.42-.02-.95,0-1.6l.12-2.76c.07-1.48.25-2.45.59-3.04.42-.74,1.17-1.07,2.12-.9"/>
        <path class="cls-4" d="M126.8,62.11c3.29.57,5.64,1.71,6.97,3.4,1.33,1.69,1.93,4.26,1.77,7.67l-.26,5.79-6.67-1.16.19-4.13c.07-1.48-.03-2.5-.3-3.19-.35-.88-1.07-1.46-2.01-1.62s-1.7.16-2.12.9c-.34.59-.52,1.56-.59,3.04l-.12,2.76c-.03.65-.03,1.17,0,1.6.02.51.12.99.3,1.41.18.44.46.86.83,1.25.3.32.67.69,1.16,1.14l5.7,5.23c.64.57,1.18,1.13,1.57,1.67.39.51.7,1.06.92,1.63.23.57.38,1.19.44,1.86.06.71.08,1.57.04,2.56l-.28,6.15c-.15,3.4-.97,5.72-2.43,6.93-1.46,1.2-3.87,1.51-7.17.94-1.72-.3-3.19-.73-4.36-1.3-1.1-.54-2-1.23-2.68-2.09-.67-.85-1.14-1.88-1.41-3.08-.28-1.27-.38-2.81-.3-4.59l.25-5.68,6.67,1.16-.18,4.01c-.07,1.49.03,2.5.3,3.19.35.88,1.07,1.46,2.01,1.62s1.7-.16,2.12-.9c.33-.59.52-1.56.58-3.04l.12-2.7c.03-.63.01-1.18-.05-1.67-.06-.51-.2-1-.41-1.48s-.51-.94-.89-1.38c-.35-.4-.79-.84-1.35-1.35l-4.73-4.36c-.72-.66-1.33-1.33-1.8-1.95-.46-.61-.82-1.25-1.08-1.9-.26-.66-.44-1.38-.53-2.16-.1-.81-.13-1.73-.08-2.74l.25-5.57c.08-1.79.32-3.28.72-4.46.37-1.1.92-1.95,1.65-2.54.74-.59,1.69-.96,2.83-1.11,1.2-.15,2.69-.07,4.41.23Z"/>
        <path class="cls-4" d="M119.21,60.9l12.26-7.01c.8-.46,1.73-.76,2.78-.89,1.36-.18,3.01-.1,4.9.23,3.77.66,6.52,2.05,8.18,4.15,1.67,2.11,2.42,5.16,2.24,9.09l-12.26,7.01c.18-3.93-.58-6.98-2.24-9.09-1.66-2.1-4.41-3.49-8.18-4.15-1.89-.33-3.53-.4-4.9-.23-1.05.13-1.98.43-2.78.89Z"/>
        <path class="cls-4" d="M196.15,148.23l-12.26,7.01c.33-.19.65-.41.93-.66,1.8-1.56,2.81-4.4,2.99-8.45l12.26-7.01c-.18,4.04-1.19,6.88-2.99,8.45-.29.25-.6.46-.93.66Z"/>
        <polygon class="cls-4" points="141.91 126.64 154.17 119.64 200.59 127.71 188.33 134.72 141.91 126.64"/>
        <path class="cls-2" d="M127.28,51.48c41.74,7.26,74.08,49.07,72.1,93.19-1.98,44.13-37.54,74.13-79.28,66.86-41.74-7.26-74.09-49.08-72.11-93.2,1.98-44.13,37.54-74.12,79.29-66.85ZM111.85,148.62c.26-1.33.17-2.79-.27-4.34-.42-1.5-1.16-3.17-2.2-5.01-2.09-3.67-4.37-5.97-6.77-6.84-.39-.14-.79-.25-1.2-.32-2.13-.37-4.54.2-7.19,1.71l-4.95,2.82c-.87.5-1.59.99-2.16,1.46-.61.5-1.11,1.08-1.49,1.72-.38.63-.65,1.35-.83,2.14-.17.75-.26,1.65-.25,2.63l-.12,7.62c-.02.59-.04,1.06-.08,1.44-.03.27-.09.5-.18.67s-.25.33-.44.47c-.26.19-.62.42-1.1.69l-2.22,1.26c-1.26.72-1.81.8-1.99.79-.19-.02-.31-.09-.48-.38-.21-.37-.14-.51-.08-.6.09-.15.44-.59,1.7-1.3l4.81-2.74-5.62-9.88-6.15,3.5c-3.15,1.79-5,3.98-5.48,6.5-.49,2.51.33,5.64,2.42,9.3,1.05,1.83,2.12,3.33,3.18,4.45,1.12,1.16,2.32,1.99,3.57,2.46.41.15.82.26,1.24.33.9.16,1.83.14,2.78-.05,1.33-.26,2.81-.86,4.39-1.75l4.49-2.55c.91-.52,1.69-1.06,2.31-1.62.65-.58,1.2-1.22,1.62-1.93.42-.7.73-1.52.93-2.4.19-.85.29-1.84.32-2.95l.11-6.37c0-.66.04-1.2.1-1.61.06-.36.14-.67.27-.9.13-.26.31-.48.52-.67.25-.23.58-.46.99-.69l2.17-1.24c1.27-.71,1.81-.8,1.99-.79.18.02.31.09.47.38.22.38.14.51.08.6-.09.15-.43.59-1.7,1.3l-4.71,2.68,5.62,9.89,6.06-3.45c1.58-.9,2.83-1.86,3.73-2.86.94-1.06,1.55-2.26,1.8-3.59M136.96,81.12l.34-7.64c.18-3.93-.58-6.98-2.24-9.09-1.66-2.1-4.41-3.49-8.18-4.15-1.89-.33-3.53-.4-4.9-.23-1.42.17-2.62.66-3.58,1.42-.97.77-1.7,1.88-2.17,3.28-.44,1.34-.72,3-.8,4.96l-.25,5.57c-.05,1.12-.02,2.16.09,3.07.12.95.35,1.86.68,2.69.33.84.79,1.65,1.36,2.41.56.74,1.25,1.5,2.06,2.25l4.74,4.36c.49.45.89.84,1.17,1.16.24.29.42.56.54.84.12.28.2.58.25.89.05.35.06.79.04,1.31l-.12,2.7c-.07,1.56-.28,2.09-.36,2.24-.05.08-.12.21-.5.15s-.44-.21-.49-.32c-.07-.18-.23-.76-.16-2.33l.26-5.87-10.18-1.77-.34,7.54c-.09,1.95.03,3.68.35,5.13.34,1.52.95,2.85,1.84,3.97.87,1.11,2.02,2.01,3.4,2.68,1.33.63,2.95,1.13,4.84,1.46,3.77.66,6.61.23,8.42-1.26,1.83-1.5,2.84-4.25,3.02-8.16l.28-6.15c.05-1.09.04-2.04-.05-2.85-.08-.86-.28-1.67-.58-2.43-.3-.75-.71-1.48-1.21-2.15-.49-.66-1.12-1.33-1.85-1.99l-5.68-5.21c-.44-.4-.79-.75-1.05-1.04-.19-.2-.32-.4-.41-.59-.08-.19-.12-.43-.14-.69-.02-.36-.02-.83,0-1.41l.12-2.76c.07-1.56.28-2.09.36-2.24.05-.08.12-.21.51-.15s.44.22.48.32c.07.18.23.77.16,2.33l-.27,5.98,10.18,1.77M184.82,154.58c1.8-1.56,2.81-4.4,2.99-8.45l.51-11.42-46.41-8.07-.48,10.6,19.46,3.39-.04.82c-.01.33-.05,1.11-2.21.74l-17.3-3.01-.48,10.6,17.3,3.01c2.12.37,3.74.32,4.95-.13.88-.33,1.62-.91,2.17-1.74.44.97,1.09,1.79,1.94,2.43,1.18.9,2.79,1.51,4.95,1.89l4.24.74c3.75.65,6.58.18,8.39-1.38"/>
        <path class="cls-4" d="M111.58,144.28c.44,1.55.53,3.01.28,4.34-.25,1.33-.86,2.54-1.8,3.59-.9,1.01-2.15,1.97-3.73,2.86l-6.06,3.45-5.62-9.89,4.71-2.68c1.27-.71,1.61-1.15,1.7-1.3.05-.08.14-.22-.08-.6-.16-.29-.28-.35-.38-.37-.27-.01-.82.07-2.08.78l-2.17,1.24c-.41.23-.74.46-.99.69-.22.19-.39.41-.52.67-.13.24-.22.54-.27.9-.06.41-.09.95-.1,1.61l-.11,6.37c-.03,1.11-.13,2.1-.32,2.95-.2.88-.51,1.7-.93,2.4-.41.71-.96,1.36-1.62,1.93-.62.56-1.4,1.1-2.31,1.62l-4.49,2.55c-1.58.89-3.05,1.48-4.39,1.75-.96.2-1.88.21-2.78.05-.42-.07-.84-.19-1.24-.33-1.25-.47-2.45-1.3-3.57-2.46-1.06-1.12-2.14-2.62-3.18-4.45-2.09-3.66-2.9-6.79-2.42-9.3.48-2.52,2.32-4.71,5.48-6.5l6.15-3.5,5.62,9.88-4.81,2.74c-1.26.72-1.6,1.15-1.7,1.3-.05.08-.13.22.08.6.16.28.29.36.39.37.27,0,.82-.07,2.08-.79l2.22-1.26c.47-.27.84-.5,1.1-.69.2-.14.35-.3.44-.47.1-.17.15-.39.18-.67.04-.38.06-.86.08-1.44l.12-7.62c0-.99.08-1.88.25-2.63.18-.79.45-1.5.83-2.14.38-.64.88-1.22,1.49-1.72.57-.47,1.29-.96,2.16-1.46l4.95-2.82c2.65-1.5,5.05-2.08,7.19-1.7.41.07.81.18,1.2.32,2.41.86,4.68,3.16,6.77,6.84,1.05,1.83,1.79,3.51,2.2,5.01ZM110.13,148.05c.2-1.03.12-2.18-.23-3.42-.37-1.32-1.04-2.83-2-4.51-1.83-3.21-3.74-5.2-5.68-5.9-.29-.1-.59-.18-.9-.24-1.76-.31-3.82.21-6.14,1.54l-4.95,2.81c-.79.45-1.45.89-1.95,1.31-.47.39-.86.84-1.14,1.32-.28.48-.5,1.03-.63,1.63-.14.62-.21,1.38-.21,2.24l-.12,7.65c-.02.66-.05,1.18-.09,1.6-.05.51-.19.97-.39,1.35-.2.37-.49.7-.87.98-.31.22-.72.48-1.25.78l-2.22,1.26c-1.19.68-2.07,1-2.75.99-.12,0-.24-.01-.35-.03-.71-.12-1.34-.61-1.79-1.39-.52-.91-.56-1.82-.13-2.57.35-.6,1.07-1.19,2.26-1.86l3.33-1.9-3.71-6.51-4.67,2.66c-2.75,1.56-4.32,3.37-4.72,5.39-.39,2.03.35,4.68,2.18,7.89.95,1.68,1.92,3.03,2.86,4.02.9.94,1.84,1.6,2.81,1.96.3.11.61.2.93.25.69.12,1.42.1,2.18-.05,1.18-.23,2.5-.77,3.94-1.59l4.49-2.55c.82-.46,1.52-.95,2.06-1.43.54-.47.98-.99,1.3-1.55.33-.56.57-1.2.73-1.9.16-.74.25-1.6.27-2.57l.11-6.36c0-.75.05-1.36.12-1.87.08-.56.24-1.05.46-1.48.22-.42.51-.78.86-1.1.32-.3.74-.59,1.24-.87l2.17-1.24c1.19-.68,2.07-1,2.75-.99.13,0,.25.01.37.03.71.12,1.33.61,1.78,1.39.52.91.56,1.82.12,2.57-.34.59-1.06,1.17-2.26,1.86l-3.24,1.84,3.71,6.51,4.58-2.61c1.43-.81,2.56-1.68,3.35-2.56.75-.84,1.23-1.77,1.42-2.79"/>
        <path class="cls-2" d="M108.34,46.06c-4.09,2.34-8.17,4.67-12.26,7.01-4.85,1.43-9.47,3.4-13.79,5.87l12.26-7.01c4.32-2.47,8.94-4.45,13.79-5.87Z"/>
        <path class="cls-2" d="M204.67,166.93c-6.02,12.99-15.57,23.41-27.35,30.14l-12.26,7.01c11.78-6.73,21.33-17.14,27.35-30.14,4.09-2.34,8.17-4.67,12.26-7.01Z"/>
        <path class="cls-2" d="M108.34,46.06c9.64-2.83,20.2-3.5,31.2-1.59l-12.26,7.01c-10.99-1.91-21.56-1.24-31.2,1.59.17-.1.39-.22.55-.32,3.08-1.76,6.17-3.53,9.25-5.29.44-.25.88-.5,1.32-.75.28-.16.55-.31.83-.47.09-.05.21-.13.3-.17Z"/>
        <path class="cls-2" d="M204.67,166.93s-.06.03-.08.05c-.15.09-.3.17-.46.26-.06.03-.13.08-.19.11-.24.14-.49.28-.73.42-3.6,2.06-7.2,4.11-10.8,6.17,4.04-8.71,6.49-18.57,6.97-29.27,0-.01,0-.02,0-.03,4.09-2.34,8.17-4.67,12.26-7.01,0,.01,0,.02,0,.03-.48,10.7-2.93,20.56-6.97,29.27Z"/>
        <path class="cls-2" d="M194.57,80.75c-4.09,2.34-8.17,4.67-12.26,7.01-13.13-18.67-32.74-32.4-55.03-36.28l12.26-7.01c22.29,3.88,41.9,17.61,55.03,36.28Z"/>
        <path class="cls-2" d="M194.57,80.75c11.45,16.29,17.98,36.33,17.07,56.88-4.09,2.34-8.17,4.67-12.26,7.01.91-20.55-5.61-40.6-17.07-56.88,4.09-2.34,8.17-4.67,12.26-7.01Z"/>
        <path class="cls-4" d="M127.78,40.34c-47.55-8.27-88.07,25.9-90.32,76.17-2.26,50.27,34.59,97.9,82.14,106.17,47.54,8.27,88.06-25.9,90.31-76.17,2.26-50.27-34.59-97.9-82.13-106.17ZM199.38,144.67c-1.98,44.13-37.54,74.13-79.28,66.86-41.74-7.26-74.09-49.08-72.11-93.2,1.98-44.13,37.54-74.12,79.29-66.85,41.74,7.26,74.08,49.07,72.1,93.19"/>
        <path class="cls-4" d="M76.89,167.17c.23.08.47.14.71.18.69.12,1.42.1,2.18-.05,1.18-.23,2.5-.77,3.94-1.59l4.49-2.55c.82-.46,1.52-.95,2.06-1.43.54-.47.98-.99,1.3-1.55.33-.56.57-1.2.73-1.9.16-.74.25-1.6.27-2.57l.11-6.36c0-.75.05-1.36.12-1.87.08-.56.24-1.05.46-1.48.22-.42.51-.78.86-1.1.32-.3.74-.59,1.24-.87l2.17-1.24c.89-.51,1.61-.81,2.2-.93.1-.02.19-.04.29-.05.09,0,.18-.01.27-.01.13,0,.25.01.37.03.24.04.46.13.67.24.06.03.12.07.18.11.19.13.38.3.55.49.11.13.21.28.31.43.02.04.05.07.07.11.06.11.12.23.17.34.35.8.34,1.58-.05,2.23-.34.59-1.06,1.17-2.26,1.86l-3.24,1.84,3.71,6.51,4.58-2.61c.72-.41,1.36-.83,1.91-1.25.56-.43,1.04-.86,1.43-1.31.37-.42.68-.86.92-1.33.24-.47.4-.95.5-1.46.07-.38.11-.79.11-1.21,0,0,0-.01,0-.02,0-.69-.12-1.43-.33-2.2-.37-1.32-1.04-2.83-2-4.51-.39-.69-.79-1.32-1.19-1.9-.27-.39-.54-.75-.81-1.08-.27-.33-.53-.63-.8-.91-.95-.98-1.91-1.66-2.88-2.01-.1-.04-.2-.06-.3-.09-.19-.06-.39-.11-.59-.14-.22-.04-.45-.06-.68-.08-1.6-.09-3.43.45-5.46,1.61l-4.95,2.81c-.79.45-1.45.89-1.95,1.31-.47.39-.86.84-1.14,1.32-.28.48-.5,1.03-.63,1.63-.14.62-.21,1.38-.21,2.24l-.12,7.65c-.02.66-.04,1.18-.09,1.6-.05.51-.19.97-.39,1.35-.2.37-.49.7-.87.98-.31.22-.72.48-1.25.78l-2.22,1.26c-1.19.68-2.07,1-2.75.99-.12,0-.24-.01-.35-.03-.44-.08-.85-.29-1.21-.64-.08-.08-.16-.16-.23-.26-.12-.15-.24-.32-.34-.5,0,0,0,0,0,0-.18-.31-.29-.63-.36-.93,0-.04-.02-.08-.02-.12-.07-.43-.04-.85.12-1.23.04-.1.09-.19.14-.29.09-.15.2-.3.34-.45.41-.45,1.03-.91,1.92-1.42l3.33-1.9-3.71-6.51-4.67,2.66c-1.89,1.07-3.22,2.26-4,3.56-.35.59-.59,1.2-.72,1.83-.05.25-.08.52-.09.79-.09,1.91.67,4.29,2.27,7.1.05.09.1.17.15.26.14.25.29.49.43.72.32.51.63.99.95,1.42.45.62.89,1.16,1.33,1.62.61.64,1.24,1.14,1.88,1.52.31.18.62.33.93.45.07.03.15.05.22.07Z"/>
        <path class="cls-4" d="M76.56,48.83l12.26-7.01c14.68-8.39,32.4-11.77,51.22-8.49l-12.26,7.01c-18.82-3.27-36.54.1-51.22,8.49Z"/>
        <path class="cls-4" d="M183.07,207.17l-12.26,7.01c22.41-12.81,37.74-37.3,39.1-67.68,2.26-50.27-34.59-97.9-82.13-106.17l12.26-7.01c47.54,8.27,84.39,55.9,82.13,106.17-1.36,30.37-16.69,54.87-39.1,67.68Z"/>
      </g>
    </g>
  </g>
</svg>